<?xml version="1.0" standalone="no"?>
<!DOCTYPE svg PUBLIC "-//W3C//DTD SVG 20010904//EN"
 "http://www.w3.org/TR/2001/REC-SVG-20010904/DTD/svg10.dtd">
<svg version="1.0" xmlns="http://www.w3.org/2000/svg"
 width="1024.000000pt" height="1024.000000pt" viewBox="0 0 1024.000000 1024.000000"
 preserveAspectRatio="xMidYMid meet">
<metadata>
Created by potrace 1.14, written by Peter Selinger 2001-2017
</metadata>
<g transform="translate(0.000000,1024.000000) scale(0.100000,-0.100000)"
fill="#000000" stroke="none">
<path d="M0 8157 l0 -2082 22 -10 c31 -14 36 -37 7 -33 l-24 3 -3 -3018 -2
-3017 4720 0 4720 0 0 80 0 80 320 0 320 0 0 -80 0 -80 80 0 80 0 0 3565 0
3565 -127 -82 c-178 -113 -191 -120 -203 -113 -15 9 5 32 44 52 17 8 88 52
158 97 l128 81 0 537 0 537 -76 -5 c-48 -3 -74 -2 -70 4 7 12 -22 25 -35 16
-6 -3 -17 0 -25 7 -44 36 -34 -55 11 -96 20 -19 25 -34 25 -70 0 -30 -5 -47
-14 -51 -8 -3 -20 -19 -26 -35 -14 -32 -37 -42 -89 -36 -35 4 -52 22 -134 141
-54 79 -67 69 -68 -53 -1 -53 0 -100 1 -106 5 -21 0 -246 -5 -255 -3 -5 -16
-5 -30 2 -27 12 -55 -2 -55 -28 0 -8 -4 -14 -10 -14 -5 0 -10 7 -10 15 0 7 -7
18 -15 22 -11 6 -16 40 -20 138 -7 146 -10 159 -27 149 -7 -4 -5 1 4 12 14 16
16 35 13 94 -9 185 -7 247 6 269 12 20 12 24 -5 36 -18 14 -18 16 -2 40 13 19
15 37 11 69 -5 32 -3 45 9 55 10 8 16 30 16 55 1 59 19 100 85 196 92 134 125
170 156 170 16 0 33 9 43 23 8 12 13 15 10 6 -7 -23 7 -30 42 -20 39 10 41 52
4 62 l-25 6 28 11 c15 6 27 18 27 27 0 8 4 15 9 15 5 0 23 24 40 53 44 75 133
166 170 173 l31 7 0 448 0 449 -5120 0 -5120 0 0 -2083z m8374 1924 c22 -5 50
-20 62 -33 22 -21 23 -26 12 -63 -6 -22 -11 -46 -9 -53 1 -8 -3 -19 -8 -26 -6
-7 -14 -41 -17 -75 -6 -55 -4 -64 15 -85 l21 -23 -20 -25 c-24 -31 -24 -37 -5
-74 13 -26 13 -30 -8 -54 -13 -14 -29 -38 -35 -54 -12 -28 -4 -48 29 -76 3 -3
6 -21 6 -41 0 -24 9 -48 26 -71 32 -41 32 -41 10 -89 -32 -68 -66 -82 -221
-91 -143 -9 -334 1 -369 21 -42 22 -52 67 -57 257 -3 98 -1 265 3 369 12 301
20 308 351 300 96 -2 193 -8 214 -14z m1268 -263 c-5 -71 -10 -77 -11 -15 0
31 2 57 7 57 4 0 6 -19 4 -42z m-65 -50 c-3 -8 -6 -5 -6 6 -1 11 2 17 5 13 3
-3 4 -12 1 -19z m30 -124 c-3 -3 -12 -4 -19 -1 -8 3 -5 6 6 6 11 1 17 -2 13
-5z m-4544 -289 c4 -77 6 -300 5 -496 -2 -269 0 -352 8 -340 10 13 14 13 28 2
9 -7 16 -21 16 -31 0 -23 56 -236 108 -410 112 -377 132 -441 156 -511 14 -42
28 -84 32 -93 5 -14 -3 -16 -58 -16 -40 0 -71 -5 -85 -15 -18 -13 -22 -13 -34
1 -8 10 -21 13 -36 9 -18 -4 -23 -1 -23 13 0 16 13 21 76 32 42 7 78 19 80 25
3 7 -16 63 -41 126 -37 91 -115 331 -115 353 0 3 -7 3 -15 0 -8 -4 -15 -2 -15
4 0 6 5 12 12 14 11 4 10 10 -23 128 -6 19 -16 58 -23 85 -12 48 -13 49 -23
24 -7 -15 -8 -42 -3 -69 4 -24 4 -54 0 -66 -5 -12 -6 -25 -2 -29 4 -4 7 -26 7
-49 0 -40 -1 -43 -26 -42 -14 1 -26 6 -27 11 -8 41 -6 73 6 93 8 12 12 25 8
29 -3 3 -6 1 -6 -6 0 -7 -5 -9 -10 -6 -6 4 -7 13 -1 24 16 28 24 141 11 141
-8 0 -10 22 -6 78 l6 77 -25 -115 c-14 -63 -25 -125 -25 -137 0 -13 -5 -23
-11 -23 -5 0 -8 -4 -4 -9 3 -5 0 -13 -6 -16 -6 -5 -8 -21 -4 -41 4 -26 2 -34
-9 -34 -9 0 -19 -19 -27 -52 -6 -29 -16 -60 -20 -68 -15 -30 -28 -105 -19
-108 6 -2 10 -13 10 -23 0 -11 -5 -17 -10 -14 -6 4 -8 11 -5 16 4 5 3 9 -2 9
-21 -1 -95 -209 -95 -264 1 -22 7 -43 14 -47 7 -4 41 -11 75 -15 56 -6 63 -9
63 -28 0 -38 -14 -48 -66 -45 -48 3 -74 17 -74 38 0 15 -17 14 -23 -1 -6 -16
-27 35 -27 65 0 36 -12 67 -22 61 -14 -9 -1 48 23 100 10 22 19 50 19 62 0 22
87 291 99 309 4 6 9 28 10 50 2 22 10 58 18 80 28 78 79 257 86 302 2 12 6 25
10 29 4 4 7 218 7 475 0 257 3 475 6 484 4 9 14 15 23 13 13 -3 17 -26 24
-143z m-4723 -75 c0 -5 -4 -10 -9 -10 -6 0 -13 5 -16 10 -3 6 1 10 9 10 9 0
16 -4 16 -10z m1530 -54 c0 -3 -4 -8 -10 -11 -5 -3 -10 -1 -10 4 0 6 5 11 10
11 6 0 10 -2 10 -4z m155 -161 c8 -43 13 -89 8 -77 -2 6 -11 12 -19 12 -10 0
-13 -8 -9 -27 6 -27 6 -27 -9 -9 -18 22 -20 36 -7 36 6 0 9 8 9 18 0 9 2 24 6
33 4 9 1 23 -6 30 -7 8 -20 23 -28 33 -12 16 -8 15 18 -4 18 -13 34 -33 37
-45z m-57 10 c-3 -3 -9 2 -12 12 -6 14 -5 15 5 6 7 -7 10 -15 7 -18z m407 -95
c9 -16 13 -30 11 -30 -3 0 -12 14 -21 30 -9 17 -13 30 -11 30 3 0 12 -13 21
-30z m112 -192 c-3 -8 -6 -5 -6 6 -1 11 2 17 5 13 3 -3 4 -12 1 -19z m78 -78
c3 -5 1 -10 -4 -10 -6 0 -11 5 -11 10 0 6 2 10 4 10 3 0 8 -4 11 -10z m5586
-19 c164 -7 179 -9 220 -33 27 -16 54 -43 69 -70 22 -38 25 -54 24 -143 -1
-117 -16 -160 -75 -220 l-39 -41 44 -41 c66 -62 76 -90 76 -207 -2 -246 -66
-286 -445 -272 -99 4 -183 10 -186 14 -4 4 -10 226 -13 495 -6 478 -6 487 14
507 23 23 33 23 311 11z m-6724 -123 c-3 -7 -5 -2 -5 12 0 14 2 19 5 13 2 -7
2 -19 0 -25z m-1179 -101 c3 -21 -1 -27 -17 -27 -25 0 -34 14 -26 41 10 29 39
20 43 -14z m1300 -64 c2 -13 -1 -23 -7 -23 -6 0 -11 -8 -11 -17 0 -14 -3 -13
-16 5 -8 12 -17 31 -19 43 -3 17 0 20 23 17 19 -2 28 -9 30 -25z m447 -121
c-6 -7 -35 18 -35 31 0 5 9 2 20 -8 11 -10 18 -20 15 -23z m-1355 -7 c30 -19
70 -41 88 -50 18 -9 30 -20 27 -25 -10 -16 16 -35 119 -88 90 -47 113 -53 84
-23 -7 7 17 -3 54 -21 71 -35 93 -58 32 -32 -20 8 -38 13 -41 10 -10 -10 89
-58 125 -60 40 -3 155 -56 135 -63 -7 -3 -29 5 -49 17 -19 12 -38 20 -40 17
-8 -8 68 -45 104 -52 17 -3 46 -14 64 -26 91 -57 235 -139 343 -194 104 -54
257 -135 495 -263 36 -19 103 -55 150 -79 137 -73 190 -104 190 -113 0 -13
-35 -30 -63 -30 -13 0 -32 9 -42 20 -10 11 -23 20 -29 20 -6 0 -22 9 -36 20
-14 11 -32 20 -40 20 -8 0 -26 9 -40 20 -14 11 -31 20 -39 20 -8 0 -22 6 -30
14 -9 7 -36 20 -61 29 -119 42 -136 49 -147 64 -7 9 -24 17 -37 18 -14 2 -33
11 -42 20 -9 9 -29 19 -45 22 -16 3 -29 9 -29 14 0 5 -17 16 -37 24 -20 9 -58
29 -85 45 -27 17 -60 30 -74 30 -14 0 -23 3 -21 8 6 8 -19 33 -26 26 -7 -7
-147 68 -147 78 0 5 -4 7 -9 4 -9 -6 -142 61 -206 103 -22 15 -67 40 -100 56
-33 16 -74 38 -91 50 -17 12 -65 38 -105 59 -41 21 -125 64 -186 96 l-113 57
-1 -171 c-1 -94 -3 -182 -5 -196 -2 -14 -4 -319 -4 -679 0 -359 -3 -657 -5
-662 -8 -12 -70 18 -67 32 2 7 5 423 7 923 3 501 5 914 5 919 0 13 15 7 70
-28z m1390 5 c14 -34 7 -51 -13 -31 -13 13 -18 61 -6 61 4 0 12 -14 19 -30z
m498 -90 c-1 -29 -18 -33 -18 -4 0 8 -6 14 -12 15 -10 0 2 8 29 18 1 1 1 -12
1 -29z m-808 0 c0 -5 -4 -10 -10 -10 -5 0 -10 5 -10 10 0 6 5 10 10 10 6 0 10
-4 10 -10z m114 -64 c29 -39 32 -52 13 -59 -21 -8 -38 8 -31 27 4 11 2 16 -7
14 -9 -2 -14 7 -15 25 -1 36 8 34 40 -7z m171 -146 c21 -33 21 -53 -1 -84 -14
-20 -14 -20 -14 2 0 13 -9 40 -20 62 -24 48 -24 50 -2 50 9 0 26 -14 37 -30z
m445 -56 c0 -8 -5 -12 -10 -9 -6 4 -8 11 -5 16 9 14 15 11 15 -7z m65 6 c3 -5
1 -10 -4 -10 -6 0 -11 5 -11 10 0 6 2 10 4 10 3 0 8 -4 11 -10z m4622 -32 c-3
-7 -5 -2 -5 12 0 14 2 19 5 13 2 -7 2 -19 0 -25z m2783 22 c0 -5 -4 -10 -9
-10 -6 0 -13 5 -16 10 -3 6 1 10 9 10 9 0 16 -4 16 -10z m-4973 -32 c-3 -7 -5
-2 -5 12 0 14 2 19 5 13 2 -7 2 -19 0 -25z m-2423 6 c4 -9 4 -19 1 -22 -7 -8
-35 19 -29 29 8 14 21 11 28 -7z m4501 6 c3 -5 1 -10 -4 -10 -6 0 -11 5 -11
10 0 6 2 10 4 10 3 0 8 -4 11 -10z m95 0 c0 -5 -4 -10 -10 -10 -5 0 -10 5 -10
10 0 6 5 10 10 10 6 0 10 -4 10 -10z m-84 -45 c1 -8 -2 -17 -7 -21 -5 -3 -9 7
-9 22 0 27 12 26 16 -1z m-1986 0 c0 -8 9 -15 19 -15 17 0 19 -5 14 -37 -4
-26 -3 -34 5 -29 7 4 13 17 13 29 1 20 2 20 6 2 3 -11 16 -30 29 -43 13 -13
24 -30 24 -38 0 -13 -8 -14 -42 -8 -24 4 -57 6 -75 6 -18 -1 -35 3 -38 8 -9
14 16 44 40 48 26 5 33 12 11 12 -13 0 -16 5 -12 18 5 14 4 14 -9 -2 -15 -19
-15 -19 -15 2 0 13 6 22 15 22 13 0 14 4 5 20 -7 14 -7 20 0 20 5 0 10 -7 10
-15z m2070 -4 c0 -11 3 -26 6 -35 4 -10 1 -16 -9 -16 -22 0 -30 17 -23 46 8
29 26 32 26 5z m-2140 -101 c8 -5 11 -10 5 -10 -5 0 -17 5 -25 10 -8 5 -10 10
-5 10 6 0 17 -5 25 -10z m-2505 -20 c-10 -11 -23 -20 -29 -19 -6 0 -6 3 2 6 6
2 12 11 12 19 0 8 7 14 17 14 14 0 14 -2 -2 -20z m2515 -4 c0 -3 -4 -8 -10
-11 -5 -3 -10 -1 -10 4 0 6 5 11 10 11 6 0 10 -2 10 -4z m-2460 -77 c0 -16 -5
-20 -27 -17 -17 2 -29 10 -31 21 -3 13 3 17 27 17 25 0 31 -4 31 -21z m4590
-148 c14 -28 13 -31 -12 -31 -17 0 -19 3 -9 9 9 6 10 11 2 15 -6 4 -11 11 -11
17 0 16 19 10 30 -10z m-6366 -32 c4 -23 11 -29 30 -29 14 0 30 -8 35 -17 6
-10 11 -12 11 -5 0 19 17 14 23 -8 4 -14 14 -20 35 -20 17 0 33 6 36 13 5 10
7 10 12 0 3 -7 12 -13 20 -13 8 0 20 -11 26 -25 6 -14 15 -25 19 -25 4 0 20
-5 36 -12 15 -6 31 -12 36 -13 4 -2 8 -4 10 -5 1 -1 11 -4 22 -5 32 -3 112
-43 118 -58 6 -15 52 -29 120 -35 10 -1 16 -6 13 -11 -4 -5 7 -12 24 -16 17
-4 28 -10 25 -15 -5 -8 25 -23 50 -25 6 0 9 -6 8 -13 -2 -6 4 -9 13 -5 10 4
18 -4 26 -24 7 -20 22 -32 45 -40 37 -11 54 -1 26 16 -15 8 -15 10 -3 11 9 0
21 -5 28 -12 9 -9 12 -9 12 0 0 7 8 12 18 11 10 0 12 -3 5 -6 -28 -11 -11 -25
45 -38 7 -2 31 -12 53 -23 40 -20 41 -20 36 -1 -7 28 8 23 22 -7 8 -19 17 -25
31 -21 11 3 20 1 20 -4 0 -5 6 -9 14 -9 8 0 27 -11 43 -23 15 -13 50 -35 77
-48 27 -13 51 -29 53 -36 3 -6 11 -9 19 -6 8 3 14 1 14 -5 0 -5 6 -9 13 -9 6
0 26 -5 44 -12 25 -10 34 -20 39 -47 3 -19 10 -31 15 -28 5 3 9 -5 10 -18 1
-21 1 -21 11 5 5 15 16 27 24 27 8 0 14 6 15 13 0 6 4 3 9 -8 8 -19 9 -19 9
-1 1 15 4 16 15 7 20 -17 29 12 11 36 -8 10 -15 14 -15 10 0 -4 -9 -3 -20 3
-10 6 -17 17 -14 24 5 14 28 16 40 3 4 -4 13 -2 21 5 11 8 12 7 7 -5 -4 -11 1
-16 17 -19 14 -2 25 -12 29 -29 7 -23 5 -25 -21 -21 -19 3 -29 0 -29 -8 0 -7
8 -10 20 -7 13 3 20 0 20 -9 0 -8 6 -14 14 -14 13 0 24 -23 40 -90 4 -14 9
-151 12 -305 l6 -281 -36 -1 c-24 -1 -36 3 -36 12 0 8 -10 17 -22 20 -34 10
-92 38 -103 52 -13 14 -86 53 -101 53 -22 0 -228 81 -245 96 -11 10 -19 12
-24 5 -12 -20 -22 -11 -17 14 4 26 18 33 24 14 5 -14 0 130 -7 215 -4 47 -2
71 5 76 9 5 9 9 1 14 -6 4 -11 1 -12 -6 0 -7 -5 -4 -10 7 -7 15 -8 12 -4 -15
4 -27 3 -30 -4 -15 -13 26 -13 65 -2 65 16 0 18 43 4 73 -11 22 -28 35 -35 25
-1 -2 -4 -102 -7 -223 l-6 -220 -25 3 c-14 2 -49 12 -78 23 -30 11 -58 16 -64
13 -6 -4 -6 1 1 14 15 29 15 29 -26 37 -21 4 -43 11 -50 17 -7 5 -18 8 -25 5
-7 -3 6 -14 30 -25 33 -15 39 -21 26 -26 -9 -3 -22 -2 -29 4 -6 5 -16 6 -20 2
-5 -4 -5 -2 -1 5 5 9 -3 10 -30 6 -27 -4 -35 -3 -30 5 4 8 2 10 -7 6 -14 -5
-148 28 -262 64 -44 15 -62 17 -67 8 -5 -7 -8 -4 -8 7 0 13 5 17 18 14 54 -15
73 -17 67 -7 -3 5 -15 10 -27 10 -13 0 -18 5 -15 13 4 10 -1 13 -17 10 -13 -3
-32 5 -49 21 -26 24 -27 28 -28 143 -1 65 -2 154 -1 198 0 44 -4 87 -9 97 -6
11 -4 21 6 32 20 19 19 26 -2 26 -16 0 -16 2 -3 11 12 8 12 12 2 16 -9 4 -10
9 -2 18 8 10 4 14 -15 19 -14 4 -23 11 -20 16 12 19 -26 23 -40 4 -16 -22 -20
-64 -6 -64 6 0 8 -23 5 -54 -3 -31 -1 -56 4 -60 12 -7 4 -46 -10 -46 -5 0 -3
-10 3 -22 9 -16 9 -23 0 -26 -15 -5 -14 -31 3 -64 12 -23 13 -28 1 -28 -10 0
-13 -15 -11 -61 1 -33 -1 -62 -5 -64 -3 -3 -4 -16 -1 -30 5 -30 -4 -31 -74
-10 -27 8 -57 12 -66 9 -13 -4 -21 2 -27 19 -6 14 -14 27 -18 30 -5 3 -8 112
-8 241 0 130 -4 236 -9 236 -4 0 -6 7 -2 15 7 18 -25 37 -43 25 -11 -6 -10 -9
5 -13 17 -4 17 -5 -2 -6 -16 -1 -22 5 -22 22 0 12 -2 38 -6 57 -3 19 -8 73
-11 120 -5 90 3 114 40 122 31 7 42 -1 49 -33z m6415 24 c-12 -15 -12 -16 4
-10 9 3 17 2 17 -3 0 -6 -9 -10 -20 -10 -11 0 -20 2 -20 4 0 14 14 36 22 36 6
0 4 -8 -3 -17z m-89 -13 c0 -5 -5 -10 -11 -10 -5 0 -7 5 -4 10 3 6 8 10 11 10
2 0 4 -4 4 -10z m30 -41 c0 -8 -42 -20 -49 -13 -7 7 16 21 34 21 8 0 15 -4 15
-8z m80 1 c0 -5 -7 -7 -15 -4 -8 4 -15 8 -15 10 0 2 7 4 15 4 8 0 15 -4 15
-10z m-70 -44 c0 -3 -4 -8 -10 -11 -5 -3 -10 -1 -10 4 0 6 5 11 10 11 6 0 10
-2 10 -4z m-2284 -51 c-7 -27 15 -45 56 -45 34 0 65 -26 73 -60 5 -24 13 -30
43 -35 20 -3 49 -8 63 -10 38 -6 67 20 80 71 13 51 29 63 99 71 44 5 51 3 74
-22 14 -15 26 -34 26 -41 0 -8 7 -14 15 -14 14 0 46 -39 115 -140 19 -28 72
-96 118 -150 l82 -98 0 -104 c0 -200 -21 -593 -32 -603 -7 -7 -9 90 -5 339 l6
348 -80 83 c-44 45 -90 95 -102 110 -12 15 -58 72 -101 127 l-79 98 -40 -62
c-60 -95 -110 -188 -104 -195 3 -3 69 -6 146 -7 128 -1 141 -3 155 -21 39 -52
57 -50 -403 -47 -234 1 -431 4 -438 7 -6 2 -11 13 -10 24 2 25 44 32 234 35
79 2 148 7 154 13 6 6 -1 22 -17 44 -14 18 -44 64 -66 101 -22 37 -44 66 -48
63 -4 -3 -10 9 -14 25 -8 40 -28 38 -62 -7 -15 -21 -62 -80 -103 -131 -42 -52
-80 -102 -86 -112 -5 -10 -19 -23 -32 -29 -12 -6 -30 -23 -40 -38 -10 -15 -23
-31 -29 -35 -7 -4 -24 -31 -39 -59 l-27 -52 4 -276 3 -276 26 -40 c22 -33 47
-50 146 -100 85 -42 127 -68 142 -90 26 -39 26 -44 -1 -42 -13 2 -39 18 -59
37 -45 44 -132 92 -173 95 -20 1 -35 10 -42 24 -6 11 -18 29 -26 38 -42 49
-46 73 -51 306 -5 276 3 378 33 430 12 20 26 37 32 37 5 0 8 5 6 12 -5 14 43
58 62 58 7 0 10 7 6 15 -3 8 0 15 7 15 7 0 21 12 31 27 11 14 13 23 6 18 -13
-8 30 55 58 83 6 7 12 16 12 20 0 4 10 19 23 34 12 14 42 51 67 81 44 54 71
75 99 76 9 1 11 -6 7 -24z m3364 -75 c13 -7 19 -26 23 -77 8 -102 7 -622 -1
-668 l-7 -40 -75 -1 c-48 -1 -83 4 -97 13 l-23 13 0 368 c0 435 -5 415 99 407
35 -3 71 -10 81 -15z m-5706 -86 c15 -6 16 -36 16 -265 -1 -224 -4 -264 -18
-289 -9 -17 -20 -30 -24 -30 -3 0 -9 19 -13 43 -4 23 -11 47 -16 53 -4 5 -8
30 -8 55 1 65 -5 103 -16 111 -5 4 -10 14 -10 23 0 8 -20 26 -45 38 -25 13
-44 28 -43 35 2 6 -3 9 -11 6 -19 -7 -28 24 -14 49 7 12 11 25 10 30 -1 4 3 7
8 7 14 0 13 27 -2 32 -6 2 -8 10 -4 17 6 9 11 8 20 -4 11 -15 14 -15 44 2 17
10 32 24 32 31 0 10 -5 9 -22 -2 -29 -21 -47 -20 -26 0 9 9 34 17 59 18 40 1
44 3 41 24 -3 23 11 28 42 16z m-969 -64 c3 -5 1 -10 -4 -10 -6 0 -11 5 -11
10 0 6 2 10 4 10 3 0 8 -4 11 -10z m5665 -10 c0 -5 -8 -10 -17 -10 -15 0 -16
2 -3 10 19 12 20 12 20 0z m-5583 -6 c-3 -3 -12 -4 -19 -1 -8 3 -5 6 6 6 11 1
17 -2 13 -5z m5593 -18 c0 -11 -19 -15 -25 -6 -3 5 1 10 9 10 9 0 16 -2 16 -4z
m-5520 -16 c0 -5 -2 -10 -4 -10 -3 0 -8 5 -11 10 -3 6 -1 10 4 10 6 0 11 -4
11 -10z m5497 -52 c-3 -8 -6 -5 -6 6 -1 11 2 17 5 13 3 -3 4 -12 1 -19z
m-6460 -45 c-3 -10 -5 -2 -5 17 0 19 2 27 5 18 2 -10 2 -26 0 -35z m0 -45 c-3
-8 -6 -5 -6 6 -1 11 2 17 5 13 3 -3 4 -12 1 -19z m7540 -20 c-3 -8 -6 -5 -6 6
-1 11 2 17 5 13 3 -3 4 -12 1 -19z m-3592 -56 c21 -37 61 -95 87 -130 26 -35
48 -73 48 -86 0 -12 8 -31 18 -42 10 -10 21 -27 25 -37 4 -10 27 -51 52 -92
25 -41 45 -77 45 -81 0 -14 45 -104 52 -104 5 0 8 -9 8 -19 0 -30 11 -51 27
-51 8 0 11 -4 8 -10 -9 -15 8 -12 33 6 12 8 22 21 22 28 0 7 9 21 20 31 11 10
20 22 20 27 0 12 86 186 116 233 13 22 30 51 37 65 6 14 38 65 70 114 31 49
64 103 73 120 22 46 71 99 83 92 19 -12 12 -42 -24 -106 -19 -34 -35 -64 -35
-67 0 -2 -11 -19 -25 -37 -14 -18 -25 -39 -25 -45 0 -7 -8 -25 -18 -39 -11
-15 -36 -61 -58 -102 -21 -41 -41 -77 -45 -80 -14 -12 -121 -242 -123 -265 0
-14 -4 -25 -7 -25 -10 0 -29 -50 -29 -75 0 -36 -50 -104 -77 -105 -37 0 -70
56 -98 169 -15 57 -37 127 -51 157 -13 29 -24 55 -24 57 0 7 -163 316 -188
357 -32 53 -112 199 -112 205 0 3 12 5 28 5 23 0 33 -11 67 -68z m-3948 -49
c-2 -21 -4 -4 -4 37 0 41 2 58 4 38 2 -21 2 -55 0 -75z m1683 57 c7 -14 7 -20
0 -20 -5 0 -10 5 -10 10 0 6 -5 10 -10 10 -6 0 -8 -11 -4 -25 7 -30 -11 -34
-26 -6 -13 26 -13 31 5 31 8 0 15 5 15 10 0 17 19 11 30 -10z m-1733 -12 c-3
-8 -6 -5 -6 6 -1 11 2 17 5 13 3 -3 4 -12 1 -19z m2293 -4 c0 -33 -33 -30 -38
4 -3 17 2 22 17 22 16 0 21 -6 21 -26z m6840 16 c0 -5 -26 -29 -57 -52 -32
-24 -60 -45 -63 -48 -8 -10 -110 -70 -117 -70 -3 0 -14 -7 -24 -16 -10 -9 -23
-13 -28 -9 -11 6 15 32 69 68 14 9 63 43 110 76 83 58 110 71 110 51z m-2830
-179 c0 -8 -23 -21 -36 -21 -2 0 -4 11 -4 25 0 23 2 24 20 15 11 -6 20 -15 20
-19z m2530 -28 c0 -10 -114 -83 -129 -83 -6 0 -11 -3 -11 -7 0 -5 -11 -13 -25
-20 -14 -6 -25 -9 -25 -6 0 8 42 43 52 43 4 0 17 8 27 18 49 45 74 62 92 62
10 0 19 -3 19 -7z m-2540 -13 c0 -5 -7 -10 -15 -10 -8 0 -15 5 -15 10 0 6 7
10 15 10 8 0 15 -4 15 -10z m120 -49 c0 -40 -18 -49 -30 -16 -11 30 -6 45 16
45 9 0 14 -10 14 -29z m-6050 -1 c0 -12 -8 -12 -35 0 -18 8 -17 9 8 9 15 1 27
-3 27 -9z m2258 -11 c3 -8 1 -11 -3 -7 -4 4 -16 3 -26 -3 -21 -11 -25 1 -7 19
15 15 30 11 36 -9z m-1471 -41 c-3 -8 -6 -5 -6 6 -1 11 2 17 5 13 3 -3 4 -12
1 -19z m1456 -13 c-7 -21 -13 -19 -13 6 0 11 4 18 10 14 5 -3 7 -12 3 -20z
m31 -9 c-6 -15 -24 -23 -24 -11 0 8 24 34 28 30 1 -1 0 -10 -4 -19z m5951 -25
c-3 -6 -11 -11 -17 -11 -6 0 -6 6 2 15 14 17 26 13 15 -4z m-95 -51 c0 -5 -4
-10 -10 -10 -5 0 -10 5 -10 10 0 6 5 10 10 10 6 0 10 -4 10 -10z m-4055 -160
c-5 -8 -11 -8 -17 -2 -6 6 -7 16 -3 22 5 8 11 8 17 2 6 -6 7 -16 3 -22z m1967
-45 c18 5 33 -1 54 -18 16 -13 35 -22 42 -20 7 3 12 -5 12 -21 0 -13 5 -28 10
-31 17 -11 8 -151 -11 -177 -16 -20 -24 -22 -129 -20 -62 1 -116 5 -121 7 -4
3 -11 22 -15 43 -4 20 -11 42 -15 48 -6 7 -5 34 2 65 17 78 99 154 136 127 6
-5 22 -6 35 -3z m1568 -45 c0 -5 -5 -10 -11 -10 -5 0 -7 5 -4 10 3 6 8 10 11
10 2 0 4 -4 4 -10z m-5240 -27 c8 -3 25 -5 38 -4 12 1 22 -3 22 -9 0 -8 9 -10
25 -6 14 4 25 3 25 -1 -1 -14 -28 -44 -31 -35 -6 14 -49 25 -49 13 0 -6 -14
-11 -32 -11 -17 0 -28 3 -25 7 4 3 -2 12 -13 20 -28 20 -26 42 3 36 12 -3 29
-7 37 -10z m2220 -7 c0 -28 -66 -76 -105 -76 -8 0 -15 -4 -15 -10 0 -5 -9 -10
-20 -10 -11 0 -20 -4 -20 -10 0 -5 -13 -10 -30 -10 -16 0 -45 -8 -65 -17 -39
-19 -47 -16 -39 12 4 17 14 20 60 21 35 0 58 5 64 13 4 8 13 10 20 6 6 -4 19
0 28 9 46 45 122 89 122 72z m966 -46 c0 -11 -4 -20 -8 -20 -4 0 -8 2 -8 4 0
2 -3 11 -6 20 -4 10 -1 16 8 16 7 0 14 -9 14 -20z m122 -3 c2 -12 -3 -17 -17
-17 -15 0 -21 6 -21 21 0 25 33 22 38 -4z m-6569 -38 c-29 -6 -56 -5 -70 0
-18 8 -7 10 46 9 70 0 70 0 24 -9z m5414 -4 c-3 -9 -8 -14 -10 -11 -3 3 -2 9
2 15 9 16 15 13 8 -4z m-3553 -20 c26 -5 90 -30 90 -36 0 -4 -27 1 -60 13 -33
11 -60 24 -60 30 0 5 6 6 13 1 6 -4 14 -8 17 -8z m4537 -22 c-3 -10 -5 -4 -5
12 0 17 2 24 5 18 2 -7 2 -21 0 -30z m-6422 17 c-3 -5 -15 -10 -26 -10 -10 0
-19 5 -19 10 0 6 12 10 26 10 14 0 23 -4 19 -10z m40 0 c3 -5 -1 -10 -9 -10
-9 0 -16 5 -16 10 0 6 4 10 9 10 6 0 13 -4 16 -10z m3437 -20 c10 0 18 -7 18
-15 0 -22 -24 -18 -54 10 -32 29 -34 42 -4 21 12 -9 30 -16 40 -16z m3085 8
c-3 -8 -6 -5 -6 6 -1 11 2 17 5 13 3 -3 4 -12 1 -19z m-3027 -28 c0 -5 -2 -10
-4 -10 -3 0 -8 5 -11 10 -3 6 -1 10 4 10 6 0 11 -4 11 -10z m2996 -13 c4 -4
28 -8 53 -8 34 -2 38 -3 16 -6 -38 -6 -157 6 -151 15 6 9 73 9 82 -1z m1543
-11 c-2 -2 -26 -6 -54 -10 -36 -5 -46 -4 -35 3 13 10 99 16 89 7z m-174 -26
c15 -6 11 -8 -16 -7 -21 1 -35 5 -32 10 5 9 22 8 48 -3z m261 -13 c4 -4 -3 -7
-17 -6 -29 1 -132 -18 -106 -20 10 0 20 -8 23 -16 4 -8 10 -15 15 -15 5 0 9 7
9 15 0 23 20 18 29 -7 11 -30 6 -38 -27 -38 -23 -1 -25 -2 -9 -11 9 -6 25 -9
35 -8 25 3 92 -12 92 -21 0 -5 -6 -11 -12 -13 -10 -4 -9 -8 2 -16 13 -9 13
-11 -2 -11 -9 0 -20 5 -23 10 -3 6 -16 11 -28 11 -17 1 -18 2 -4 6 20 5 23 23
3 23 -15 0 -29 -27 -21 -40 3 -5 18 -11 33 -15 15 -3 33 -14 40 -25 11 -18 10
-20 -13 -20 -16 0 -25 6 -25 15 0 8 -4 15 -10 15 -5 0 -10 -4 -10 -9 0 -13
-185 -19 -225 -8 -11 3 -21 6 -23 6 -1 1 2 10 8 22 15 27 3 79 -18 79 -15 0
-15 2 -2 10 8 5 27 10 43 10 24 0 27 4 27 31 0 30 2 31 30 26 16 -4 32 -2 35
3 3 6 1 10 -5 10 -6 0 -9 3 -6 8 6 10 152 9 162 -1z m55 -4 c13 -17 13 -17 -6
-3 -11 8 -22 16 -24 17 -2 2 0 3 6 3 6 0 17 -8 24 -17z m-359 -48 c-2 -14 -6
-25 -8 -25 -2 0 -4 11 -4 25 0 14 4 25 9 25 4 0 6 -11 3 -25z m313 8 c-11 -3
-23 -10 -27 -16 -4 -6 -10 -8 -15 -4 -10 11 17 27 42 26 l20 -1 -20 -5z m-295
-93 c0 -5 -4 -10 -10 -10 -5 0 -10 5 -10 10 0 6 5 10 10 10 6 0 10 -4 10 -10z
m-7805 -52 c13 -13 -21 -38 -52 -38 -18 0 -23 6 -23 24 0 13 6 27 13 29 15 6
48 -2 62 -15z m517 5 c4 -48 2 -79 -4 -83 -4 -3 -10 -93 -13 -200 -2 -107 -5
-202 -5 -210 -1 -12 -4 -11 -15 4 -10 13 -11 23 -5 31 7 8 7 30 1 61 -5 27
-13 105 -16 174 -8 138 -10 165 -20 180 -8 13 12 39 40 50 30 13 35 12 37 -7z
m7602 -49 c21 -8 20 -24 -1 -24 -15 0 -16 -2 -3 -10 13 -8 12 -10 -2 -10 -10
0 -18 5 -18 10 0 6 -7 10 -15 10 -8 0 -15 -9 -15 -20 0 -15 -7 -20 -25 -20
-23 0 -24 -2 -14 -27 7 -18 13 -204 16 -504 l6 -475 -30 -13 c-31 -12 -128
-10 -168 5 -25 9 -64 54 -65 73 0 8 -25 52 -55 97 -30 46 -55 85 -55 88 0 2
-23 44 -52 93 -28 48 -71 124 -96 168 -39 71 -120 184 -123 174 -10 -30 -15
-150 -22 -498 -3 -167 -4 -174 -26 -192 -13 -11 -34 -19 -47 -19 -50 0 -51 10
-57 505 -4 286 -2 466 4 477 8 14 22 18 68 18 50 0 64 -4 96 -30 21 -17 47
-45 58 -63 11 -18 23 -33 28 -35 5 -2 9 -9 9 -16 0 -6 13 -27 28 -46 16 -19
51 -75 77 -125 26 -49 51 -94 56 -100 4 -5 18 -30 31 -55 14 -25 34 -62 46
-82 12 -21 30 -53 41 -70 10 -18 27 -48 37 -65 19 -33 36 -44 33 -20 -1 6 0
154 1 327 2 173 6 290 9 260 6 -54 6 -54 12 33 4 48 12 94 19 102 11 13 1 14
-74 11 -47 -2 -89 0 -92 5 -3 5 -2 18 1 29 5 15 13 19 31 16 13 -3 24 0 24 6
0 7 4 7 13 0 17 -14 97 -32 97 -22 0 9 33 7 69 -5 19 -6 23 -4 18 8 -7 19 33
31 74 22 18 -4 29 -2 29 4 0 13 3 13 24 5z m485 -48 c15 -18 -5 -34 -21 -18
-6 6 -17 8 -24 5 -8 -3 -14 -1 -14 5 0 22 43 28 59 8z m-6609 -72 c13 -12 15
-74 18 -402 2 -213 6 -390 10 -394 4 -4 111 -8 237 -8 127 -1 244 -6 262 -11
36 -12 66 -51 61 -82 -2 -12 -17 -31 -35 -43 -31 -21 -40 -21 -346 -20 -250 1
-317 4 -330 15 -15 12 -17 56 -17 451 0 241 3 452 6 469 5 24 14 33 38 40 37
11 75 5 96 -15z m2321 10 c30 -9 70 -24 90 -34 37 -19 155 -135 176 -173 30
-54 2 -98 -65 -99 -50 0 -63 7 -101 59 -39 54 -102 100 -155 114 -62 17 -174
6 -232 -21 -138 -67 -215 -233 -186 -402 22 -128 80 -208 187 -259 76 -37 126
-37 224 -2 66 24 85 37 148 101 l72 73 57 -10 c32 -6 59 -11 61 -11 13 0 -3
-64 -26 -106 -47 -81 -139 -160 -216 -183 -138 -43 -306 -36 -410 16 -62 30
-167 140 -200 208 -52 107 -68 276 -38 393 16 62 83 172 135 222 55 52 134 99
190 114 73 20 221 20 289 0z m1529 -34 c3 -25 5 -239 5 -477 0 -386 -2 -434
-16 -449 -21 -20 -107 -23 -119 -3 -10 16 -5 953 5 969 4 6 31 10 63 8 l57 -3
5 -45z m789 40 c93 -13 178 -59 244 -130 106 -114 137 -199 137 -369 0 -209
-96 -368 -270 -449 -61 -29 -90 -36 -158 -40 -164 -9 -277 31 -369 132 -33 36
-72 83 -87 105 -50 71 -73 260 -46 376 30 135 149 295 250 340 25 11 47 23 50
26 12 17 162 22 249 9z m-4985 -23 c23 -16 27 -24 24 -60 -5 -64 -14 -66 -297
-67 -218 0 -248 -2 -275 -19 -19 -10 -30 -24 -28 -34 2 -9 -2 -17 -8 -17 -6 0
-10 -36 -10 -95 l0 -94 53 -1 c150 -2 345 -17 368 -29 15 -7 32 -24 38 -37 9
-21 7 -28 -17 -54 l-27 -30 -155 -5 c-185 -7 -237 -13 -246 -27 -9 -14 -13
-134 -7 -175 3 -17 13 -35 22 -39 9 -4 142 -12 296 -18 l280 -11 3 -52 c6
-100 32 -93 -369 -93 -222 0 -357 4 -370 10 -18 10 -19 26 -19 466 l0 455 25
25 26 25 332 -3 c301 -3 336 -5 361 -21z m1845 4 c25 -25 27 -77 5 -106 -14
-19 -30 -20 -299 -25 -156 -3 -287 -8 -291 -12 -3 -4 -6 -53 -5 -110 1 -75 5
-106 16 -117 19 -19 95 -29 240 -31 149 -1 189 -13 193 -56 2 -19 -4 -39 -16
-54 -17 -22 -28 -23 -188 -31 -181 -8 -228 -15 -243 -33 -5 -6 -10 -50 -11
-96 -2 -123 -1 -127 15 -134 9 -3 135 -8 281 -12 146 -3 277 -9 292 -13 24 -6
27 -13 30 -53 5 -74 16 -72 -371 -70 -287 2 -344 4 -364 17 l-23 16 0 440 c1
242 5 451 10 464 11 30 1 29 386 34 316 3 322 3 343 -18z m2035 9 c23 -8 26
-15 26 -54 0 -67 -9 -70 -193 -75 l-160 -3 7 -402 c8 -448 10 -433 -61 -443
-33 -4 -45 -1 -62 16 -20 20 -20 27 -18 410 2 309 -1 393 -11 403 -9 9 -59 14
-175 16 -89 2 -165 7 -169 11 -5 4 -11 32 -14 63 l-6 57 53 4 c126 8 759 6
783 -3z m-5435 -301 c-22 -14 -33 -10 -19 6 7 8 17 12 22 9 6 -4 5 -10 -3 -15z
m1458 -161 c-3 -7 -5 -2 -5 12 0 14 2 19 5 13 2 -7 2 -19 0 -25z m5271 -863
c0 -15 -6 -25 -14 -25 -8 0 -14 10 -14 25 0 15 6 25 14 25 8 0 14 -10 14 -25z
m-1165 -2 c2 -5 -4 -16 -15 -25 -17 -17 -18 -17 -18 0 0 27 22 44 33 25z
m-2426 -40 c-3 -10 -5 -4 -5 12 0 17 2 24 5 18 2 -7 2 -21 0 -30z m1031 -98
c-2 -84 -7 -120 -15 -123 -10 -3 -13 26 -13 121 0 68 3 127 7 131 17 17 23
-20 21 -129z m1179 -197 c3 -200 1 -293 -7 -307 -8 -16 -8 -21 2 -22 9 0 9 -2
1 -5 -8 -4 -10 -65 -6 -236 5 -196 4 -230 -8 -226 -12 4 -14 92 -17 554 -1
302 0 556 4 564 17 41 26 -59 31 -322z m13 322 c0 -5 -2 -10 -4 -10 -3 0 -8 5
-11 10 -3 6 -1 10 4 10 6 0 11 -4 11 -10z m583 -22 c3 -18 6 -117 7 -220 l1
-188 -69 0 c-38 0 -89 -3 -114 -6 l-45 -6 -2 78 c-1 42 -2 80 -3 83 0 3 0 70
1 149 l1 142 109 0 109 0 5 -32z m-2864 -25 c-1 -42 -2 -44 -9 -21 -7 25 -3
68 6 68 2 0 4 -21 3 -47z m111 17 c0 -16 -4 -30 -9 -30 -5 0 -11 14 -13 30 -3
20 0 30 9 30 8 0 13 -12 13 -30z m50 18 c0 -7 -7 -22 -15 -32 -14 -19 -15 -18
-15 12 0 22 5 32 15 32 8 0 15 -6 15 -12z m3163 -29 c3 -10 2 -21 -1 -24 -3
-3 -7 -35 -8 -70 -2 -50 -7 -68 -25 -86 -17 -17 -23 -19 -30 -8 -5 8 -9 10 -9
4 -1 -5 -5 0 -10 13 -11 25 -62 31 -85 9 -16 -16 -2 -47 22 -47 10 0 13 -6 9
-16 -3 -9 -6 -23 -6 -31 0 -13 -3 -13 -16 -2 -13 11 -14 9 -9 -14 5 -20 3 -27
-8 -27 -8 0 -17 -7 -21 -15 -3 -8 -1 -15 5 -15 6 0 9 -33 7 -87 -3 -77 -5 -88
-20 -85 -15 2 -18 -5 -18 -46 0 -49 17 -72 41 -56 5 3 9 -16 9 -43 -1 -38 -3
-44 -11 -30 -6 10 -8 25 -5 33 3 8 1 14 -4 14 -6 0 -10 -20 -10 -44 0 -42 -12
-67 -24 -48 -5 9 -7 114 -6 489 l0 263 35 -3 c19 -1 35 -6 35 -10 0 -5 5 -5
12 -1 6 4 18 -2 26 -12 13 -16 14 -17 9 -1 -5 14 0 17 28 17 19 0 35 4 35 10
0 17 48 -11 53 -31z m1534 35 c-3 -4 1 -20 9 -36 10 -20 12 -34 6 -40 -6 -6
-12 3 -16 26 -4 19 -14 40 -24 45 -15 9 -14 10 7 11 13 0 22 -3 18 -6z m-4650
-26 c-3 -8 -6 -5 -6 6 -1 11 2 17 5 13 3 -3 4 -12 1 -19z m840 0 c-3 -8 -6 -5
-6 6 -1 11 2 17 5 13 3 -3 4 -12 1 -19z m-360 -1 c-5 -15 -99 -16 -104 -1 -2
7 16 12 52 12 39 0 55 -3 52 -11z m-227 -27 c0 -5 -2 -10 -4 -10 -3 0 -8 5
-11 10 -3 6 -1 10 4 10 6 0 11 -4 11 -10z m2030 0 c0 -5 -5 -10 -11 -10 -5 0
-7 5 -4 10 3 6 8 10 11 10 2 0 4 -4 4 -10z m-1872 -22 c-2 -14 -11 -22 -25
-23 -24 -2 -45 -15 -24 -15 7 0 9 -4 6 -10 -10 -16 -23 -12 -21 6 3 19 43 64
58 64 5 0 8 -10 6 -22z m4152 8 c0 -3 -4 -8 -10 -11 -5 -3 -10 -1 -10 4 0 6 5
11 10 11 6 0 10 -2 10 -4z m-7877 -26 c24 0 37 -5 37 -14 0 -9 8 -12 26 -8 20
4 25 1 22 -9 -3 -8 -12 -14 -20 -14 -8 0 -22 -5 -29 -11 -27 -21 -129 5 -129
33 0 8 -4 11 -10 8 -5 -3 -16 -3 -22 2 -16 9 37 23 67 17 11 -2 37 -4 58 -4z
m272 -14 c39 -3 114 -8 168 -12 l97 -6 0 -30 0 -30 -140 6 c-77 3 -144 8 -149
11 -5 3 -12 1 -15 -3 -7 -11 -106 4 -120 18 -6 6 -6 10 0 10 5 0 3 4 -5 9 -12
8 -12 12 -2 25 9 11 26 14 54 11 23 -2 74 -6 112 -9z m1582 6 c10 -7 10 -12
-1 -28 -8 -10 -18 -15 -22 -11 -5 4 -2 12 6 17 12 8 10 10 -7 10 -13 0 -23 5
-23 10 0 12 30 13 47 2z m1603 -25 c0 -20 -8 -41 -19 -51 -17 -16 -19 -15 -24
19 -7 45 0 65 24 65 15 0 19 -7 19 -33z m399 -67 c0 -45 4 -93 7 -107 6 -22 4
-25 -10 -20 -9 4 -16 2 -16 -2 0 -5 7 -12 16 -15 14 -6 11 -26 -4 -26 -9 0
-35 61 -33 75 2 5 3 18 4 27 1 10 5 18 9 18 4 0 8 9 8 20 0 11 -4 20 -9 20 -4
0 -7 11 -6 25 2 14 -1 28 -7 31 -5 3 -2 14 8 25 9 10 20 16 24 14 5 -3 9 -41
9 -85z m-592 -12 c-2 -13 -4 -3 -4 22 0 25 2 35 4 23 2 -13 2 -33 0 -45z m50
0 c-2 -13 -4 -3 -4 22 0 25 2 35 4 23 2 -13 2 -33 0 -45z m-196 12 c5 0 9 5 9
10 0 6 4 10 10 10 5 0 7 -7 4 -15 -4 -8 -1 -15 4 -15 6 0 13 8 16 18 3 10 4 6
3 -8 -1 -18 -7 -24 -20 -22 -10 2 -25 -2 -33 -9 -12 -10 -14 -5 -13 32 1 24 4
34 6 22 2 -13 9 -23 14 -23z m96 -12 c-3 -7 -5 -2 -5 12 0 14 2 19 5 13 2 -7
2 -19 0 -25z m436 25 c-7 -2 -13 -9 -13 -15 0 -6 6 -8 14 -5 8 3 17 0 19 -8 7
-18 0 -24 -24 -18 -25 7 -27 53 -1 52 10 0 12 -3 5 -6z m-353 -23 c0 -11 -2
-20 -4 -20 -2 0 -6 9 -9 20 -3 11 -1 20 4 20 5 0 9 -9 9 -20z m3440 -40 c14
-4 18 -9 10 -9 -9 -1 -11 -4 -5 -9 6 -4 10 -30 10 -59 1 -33 -2 -48 -8 -40 -6
7 -6 4 -1 -8 12 -32 16 -84 15 -180 -1 -77 1 -87 12 -66 6 14 18 26 26 29 8 3
11 0 7 -7 -4 -6 -2 -11 4 -11 6 0 9 -4 6 -9 -8 -12 3 -41 15 -41 5 0 10 19 10
43 l2 42 6 -35 c8 -41 3 -72 -11 -64 -5 3 -18 -2 -28 -11 -17 -15 -19 -15 -28
2 -6 10 -13 16 -15 13 -10 -10 -14 -80 -5 -80 5 0 7 -8 4 -17 -3 -10 -2 -31 3
-48 9 -28 9 -28 10 -6 1 19 4 22 13 13 14 -14 20 -179 7 -188 -5 -3 -9 2 -9
11 0 9 -5 13 -10 10 -6 -4 -8 -15 -5 -26 5 -14 0 -21 -20 -29 -34 -13 -35 -13
-29 5 4 11 -1 15 -17 16 -67 4 -79 5 -84 11 -4 4 -9 44 -11 90 -3 45 -7 89 -9
96 -3 8 0 10 6 6 7 -4 10 -1 7 7 -3 8 -15 15 -27 15 -30 2 -41 15 -35 40 4 16
12 19 35 16 16 -2 26 -8 23 -13 -8 -13 5 -11 20 3 18 17 9 45 -17 53 -17 6
-19 8 -6 11 13 4 16 17 14 62 -1 31 2 63 8 70 6 8 5 12 -4 12 -11 0 -11 2 1
10 12 8 12 10 1 10 -9 0 -10 4 -4 13 5 6 10 26 11 42 2 23 1 27 -7 15 -9 -13
-11 -13 -11 3 0 9 5 17 11 17 7 0 9 10 5 25 -4 14 -3 25 2 25 4 0 9 17 10 38
5 76 11 92 40 91 15 -1 38 -5 52 -9z m-6190 -35 c69 -8 157 -15 195 -15 41 0
65 -4 57 -9 -14 -8 -207 -5 -221 4 -5 2 -37 5 -72 6 -72 1 -99 6 -99 20 0 11
-9 12 140 -6z m3648 -173 c2 -149 0 -172 -13 -172 -13 0 -15 25 -15 176 0 136
3 175 13 172 9 -4 13 -50 15 -176z m1440 161 c-16 -2 -40 -2 -55 0 -16 2 -3 4
27 4 30 0 43 -2 28 -4z m-868 -35 c0 -25 -3 -29 -10 -18 -13 20 -13 50 0 50 6
0 10 -15 10 -32z m900 12 c-8 -5 -17 -7 -19 -4 -3 3 1 9 9 14 8 5 17 7 19 4 3
-3 -1 -9 -9 -14z m-1886 -6 c8 -22 7 -82 -1 -87 -5 -3 -8 11 -8 31 -1 21 -5
45 -9 55 -5 10 -4 17 2 17 5 0 13 -7 16 -16z m1880 -20 c31 -12 15 -19 -36
-17 -66 2 -69 3 -38 13 32 10 54 11 74 4z m-2194 -29 c0 -25 -14 -33 -25 -15
-3 6 0 10 7 11 10 0 10 2 1 6 -18 7 -16 23 2 23 9 0 15 -9 15 -25z m3117 5
c-2 -23 -12 -26 -20 -6 -3 8 -1 17 6 20 7 2 13 5 14 5 1 1 1 -8 0 -19z m220
-106 c1 -71 -2 -104 -9 -102 -16 6 -16 208 0 208 4 0 8 -48 9 -106z m-1117 86
c0 -12 -27 -20 -65 -20 -47 0 -53 18 -8 22 21 2 46 4 56 5 9 1 17 -2 17 -7z
m-3530 -10 c0 -5 -4 -10 -10 -10 -5 0 -10 5 -10 10 0 6 5 10 10 10 6 0 10 -4
10 -10z m260 -10 c0 -5 -2 -10 -4 -10 -3 0 -8 5 -11 10 -3 6 -1 10 4 10 6 0
11 -4 11 -10z m4174 -52 c-4 -14 -9 -16 -18 -9 -14 12 -15 39 -1 60 6 11 10 9
17 -9 5 -12 6 -31 2 -42z m-2734 42 c0 -5 -4 -10 -10 -10 -5 0 -10 5 -10 10 0
6 5 10 10 10 6 0 10 -4 10 -10z m-780 -25 c0 -14 -4 -25 -9 -25 -12 0 -23 29
-15 41 10 18 24 9 24 -16z m2610 4 c0 -13 -107 -11 -115 2 -5 7 7 9 34 5 22
-2 43 0 46 4 7 11 35 2 35 -11z m-2447 4 c-7 -2 -19 -2 -25 0 -7 3 -2 5 12 5
14 0 19 -2 13 -5z m167 -23 c0 -28 -11 -50 -25 -50 -16 0 -26 51 -13 67 13 16
38 5 38 -17z m1357 -17 c-3 -10 -5 -4 -5 12 0 17 2 24 5 18 2 -7 2 -21 0 -30z
m4628 17 c3 -5 1 -10 -4 -10 -6 0 -11 5 -11 10 0 6 2 10 4 10 3 0 8 -4 11 -10z
m-6248 -32 c-3 -7 -5 -2 -5 12 0 14 2 19 5 13 2 -7 2 -19 0 -25z m3254 7 c5 4
9 -3 9 -14 0 -13 7 -21 16 -21 21 0 13 -23 -10 -26 -21 -3 -35 -14 -18 -14 7
0 12 -7 12 -15 0 -8 4 -15 9 -15 5 0 6 -13 2 -29 -4 -19 -20 -39 -45 -56 -36
-25 -38 -25 -33 -6 3 12 0 21 -6 21 -7 0 -5 5 3 10 11 7 11 10 2 10 -7 0 -11
3 -9 8 3 4 1 29 -3 57 -7 45 -5 52 16 72 13 12 24 28 24 35 0 8 5 6 11 -5 6
-9 14 -15 20 -12z m1699 -22 c0 -7 -4 -13 -10 -13 -5 0 -10 5 -10 11 0 6 -9 8
-20 4 -15 -5 -19 -3 -14 10 4 9 13 14 20 11 9 -3 11 1 7 12 -4 13 -2 12 10 -3
9 -11 17 -26 17 -32z m-2419 13 c-9 -10 -25 -13 -54 -10 -69 9 -68 24 2 24 54
0 62 -2 52 -14z m606 -23 c-3 -10 -5 -4 -5 12 0 17 2 24 5 18 2 -7 2 -21 0
-30z m1693 17 c0 -5 -7 -10 -15 -10 -8 0 -15 5 -15 10 0 6 7 10 15 10 8 0 15
-4 15 -10z m-4863 -22 c-3 -8 -6 -5 -6 6 -1 11 2 17 5 13 3 -3 4 -12 1 -19z
m113 10 c0 -7 -4 -19 -9 -27 -7 -10 -9 -7 -8 12 2 26 17 39 17 15z m-70 -29
c0 -10 -4 -19 -10 -19 -5 0 -10 12 -10 26 0 14 4 23 10 19 6 -3 10 -15 10 -26z
m2589 8 c6 -8 8 -17 4 -20 -12 -12 -53 -7 -53 6 0 28 30 37 49 14z m831 -7 c0
-5 -5 -10 -11 -10 -5 0 -7 5 -4 10 3 6 8 10 11 10 2 0 4 -4 4 -10z m-3590 -15
c0 -8 -9 -15 -20 -15 -11 0 -20 7 -20 15 0 8 9 15 20 15 11 0 20 -7 20 -15z
m1777 -7 c-3 -8 -6 -5 -6 6 -1 11 2 17 5 13 3 -3 4 -12 1 -19z m853 2 c-8 -5
-18 -6 -24 -3 -5 4 -1 10 10 13 24 9 34 2 14 -10z m64 11 c7 -11 -14 -20 -31
-13 -7 2 -10 8 -7 13 7 12 31 12 38 0z m2306 -6 c10 -12 9 -16 -5 -21 -19 -8
-40 9 -31 25 10 15 21 14 36 -4z m-4950 -22 c0 -19 -3 -24 -10 -17 -6 6 -8 18
-4 27 9 24 14 21 14 -10z m5060 -18 c0 -24 -5 -35 -14 -35 -13 0 -15 12 -7 63
0 4 6 7 11 7 6 0 10 -16 10 -35z m-1783 -7 c0 -18 3 -60 7 -93 5 -48 4 -55 -5
-35 -15 36 -24 160 -12 160 6 0 10 -15 10 -32z m258 -28 c-1 -24 2 -40 9 -40
6 0 4 -5 -4 -10 -8 -5 -24 -10 -35 -10 -19 1 -19 1 -2 11 9 6 15 15 11 20 -7
12 5 69 15 69 5 0 7 -18 6 -40z m-3585 14 c0 -8 -5 -12 -10 -9 -6 4 -8 11 -5
16 9 14 15 11 15 -7z m2778 -9 c17 -6 20 -11 12 -20 -8 -9 -8 -15 0 -20 5 -3
10 -10 10 -14 0 -11 -49 -1 -56 10 -10 17 -34 9 -34 -11 0 -11 5 -20 12 -20 9
0 9 -3 0 -12 -8 -8 -8 -15 -1 -24 11 -13 -15 -21 -78 -23 -30 -1 -33 1 -33 29
0 28 2 30 40 30 32 0 40 4 40 18 0 10 -5 23 -12 30 -9 9 -8 12 4 12 8 0 21 7
28 15 12 14 22 14 68 0z m-1570 -256 c2 -224 2 -235 -17 -235 -17 0 -18 9 -17
103 0 57 3 103 6 103 3 0 4 61 4 135 -1 98 1 135 10 132 8 -3 12 -74 14 -238z
m3882 188 c0 -10 -4 -15 -10 -12 -5 3 -10 18 -10 33 0 21 2 24 10 12 5 -8 10
-23 10 -33z m-280 29 c0 -9 -30 -14 -35 -6 -4 6 3 10 14 10 12 0 21 -2 21 -4z
m-1350 -26 c0 -5 -4 -10 -10 -10 -5 0 -10 5 -10 10 0 6 5 10 10 10 6 0 10 -4
10 -10z m405 -10 c3 -5 1 -10 -4 -10 -6 0 -11 5 -11 10 0 6 2 10 4 10 3 0 8
-4 11 -10z m-2985 -10 c0 -5 -7 -10 -15 -10 -8 0 -15 5 -15 10 0 6 7 10 15 10
8 0 15 -4 15 -10z m-600 -25 c-5 -6 -8 -14 -6 -16 2 -2 -7 -12 -20 -22 -20
-15 -24 -15 -24 -3 0 8 7 21 15 30 8 8 15 19 15 25 0 6 7 8 15 5 11 -5 13 -10
5 -19z m2480 10 c0 -8 -4 -15 -10 -15 -5 0 -7 7 -4 15 4 8 8 15 10 15 2 0 4
-7 4 -15z m-5249 -75 c4 -50 2 -77 -5 -82 -6 -4 -37 -8 -68 -8 -45 0 -58 -3
-58 -15 0 -8 5 -15 11 -15 5 0 7 6 3 13 -5 9 -4 9 6 0 15 -14 5 -47 -11 -37
-8 4 -9 3 -5 -5 6 -9 -3 -11 -33 -7 -23 2 -41 0 -41 -5 0 -5 21 -9 47 -9 67 0
48 -9 -30 -14 -36 -3 -96 -7 -134 -11 -139 -12 -213 -12 -213 1 0 7 -8 15 -18
17 -10 3 -6 5 11 6 15 0 27 -3 27 -9 0 -5 11 -10 25 -10 15 0 24 5 23 13 -2 8
15 14 47 18 35 4 17 6 -62 7 -101 2 -113 0 -114 -15 -1 -17 -2 -17 -6 0 -2 9
-9 17 -14 17 -5 0 -9 18 -9 39 l0 39 158 6 c181 7 339 20 349 29 3 4 8 29 11
56 5 54 13 60 67 58 30 -2 30 -2 36 -77z m6359 59 c0 -11 9 -32 20 -46 22 -28
27 -63 9 -63 -6 0 -9 -7 -6 -15 4 -8 2 -17 -4 -20 -11 -7 -16 5 -23 55 -3 19
-8 52 -12 73 -4 25 -3 37 5 37 6 0 11 -9 11 -21z m2040 11 c0 -5 -4 -10 -9
-10 -6 0 -13 5 -16 10 -3 6 1 10 9 10 9 0 16 -4 16 -10z m420 -6 c0 -9 -5 -14
-12 -12 -18 6 -21 28 -4 28 9 0 16 -7 16 -16z m-6193 -26 c-3 -7 -5 -2 -5 12
0 14 2 19 5 13 2 -7 2 -19 0 -25z m5893 -10 l35 -17 -42 2 c-24 1 -43 5 -43 8
0 14 -41 16 -54 4 -15 -15 -26 -10 -26 11 0 13 79 25 90 14 3 -3 21 -13 40
-22z m360 17 c0 -8 -5 -15 -11 -15 -5 0 -7 -4 -4 -10 3 -5 1 -10 -4 -10 -6 0
-11 11 -11 25 0 16 6 25 15 25 8 0 15 -7 15 -15z m73 2 c3 -8 1 -20 -4 -28 -7
-11 -9 -11 -9 -1 0 7 -4 10 -10 7 -5 -3 -10 -1 -10 4 0 6 5 11 11 11 5 0 7 5
4 10 -3 6 -2 10 3 10 6 0 12 -6 15 -13z m-116 -11 c10 -10 -17 -25 -34 -19
-20 8 -15 30 7 28 11 -1 23 -5 27 -9z m-2530 -3 c-9 -2 -14 -9 -11 -15 4 -7 2
-8 -4 -4 -20 12 -13 26 11 25 17 -1 18 -2 4 -6z m2763 -14 c0 -5 -11 -9 -25
-9 -14 0 -25 6 -25 14 0 9 8 12 25 8 14 -2 25 -8 25 -13z m59 -1 c4 -11 6 -32
3 -45 -4 -19 -9 -22 -26 -16 -11 4 -41 6 -65 4 -38 -2 -43 0 -32 13 7 8 28 14
49 14 65 -1 71 0 65 23 -3 12 -11 18 -19 15 -8 -3 -14 -1 -14 4 0 19 31 10 39
-12z m61 2 c0 -12 -29 -20 -35 -10 -9 15 4 30 20 23 8 -3 15 -9 15 -13z
m-1443 4 c-3 -3 -12 -4 -19 -1 -8 3 -5 6 6 6 11 1 17 -2 13 -5z m693 -4 c0 -5
-5 -10 -11 -10 -5 0 -7 5 -4 10 3 6 8 10 11 10 2 0 4 -4 4 -10z m-5670 -4 c0
-2 -7 -7 -16 -10 -8 -3 -12 -2 -9 4 6 10 25 14 25 6z m-210 -28 c0 -6 -6 -5
-15 2 -8 7 -15 14 -15 16 0 2 7 1 15 -2 8 -4 15 -11 15 -16z m5575 12 c3 -5
-1 -10 -9 -10 -9 0 -16 5 -16 10 0 6 4 10 9 10 6 0 13 -4 16 -10z m-5635 -10
c0 -5 -7 -10 -15 -10 -8 0 -15 5 -15 10 0 6 7 10 15 10 8 0 15 -4 15 -10z
m157 -12 c-3 -8 -6 -5 -6 6 -1 11 2 17 5 13 3 -3 4 -12 1 -19z m3422 5 c-1
-10 -5 -29 -9 -43 -7 -21 -8 -19 -9 18 -1 23 4 42 9 42 6 0 10 -8 9 -17z
m-759 -13 c0 -11 -6 -20 -14 -20 -7 0 -20 -10 -28 -22 -14 -21 -15 -21 -15 10
0 17 4 29 8 27 3 -3 12 2 19 10 17 21 30 19 30 -5z m3877 4 c2 -5 -6 -15 -17
-22 -17 -10 -20 -10 -20 3 0 8 -6 15 -12 16 -7 0 -4 4 7 9 23 10 37 8 42 -6z
m-357 -4 c0 -5 -2 -10 -4 -10 -3 0 -8 5 -11 10 -3 6 -1 10 4 10 6 0 11 -4 11
-10z m-920 -14 c0 -3 -4 -8 -10 -11 -5 -3 -10 -1 -10 4 0 6 5 11 10 11 6 0 10
-2 10 -4z m60 -13 c0 -7 -7 -13 -16 -13 -9 0 -12 5 -8 12 5 8 2 9 -9 5 -10 -3
-17 -2 -17 3 0 5 11 9 25 8 14 -1 25 -8 25 -15z m900 2 c0 -8 -7 -15 -16 -15
-14 0 -14 3 -4 15 7 8 14 15 16 15 2 0 4 -7 4 -15z m-6785 -5 c3 -5 -1 -10 -9
-10 -9 0 -16 5 -16 10 0 6 4 10 9 10 6 0 13 -4 16 -10z m578 3 c-7 -2 -21 -2
-30 0 -10 3 -4 5 12 5 17 0 24 -2 18 -5z m203 -8 c-4 -10 1 -15 15 -15 11 0
17 -4 14 -10 -11 -18 -45 -11 -45 8 0 18 8 32 18 32 2 0 2 -7 -2 -15z m5491
-1 c-3 -3 -12 -4 -19 -1 -8 3 -5 6 6 6 11 1 17 -2 13 -5z m123 -1 c0 -10 36
-13 143 -13 57 0 86 -3 82 -10 -3 -5 -15 -10 -25 -10 -10 0 -31 -5 -47 -11
-21 -8 -24 -12 -13 -19 21 -13 -50 -23 -91 -12 -24 6 -33 14 -31 26 3 15 -3
17 -32 15 -38 -4 -44 3 -24 26 14 15 38 20 38 8z m-2440 -7 c0 -3 -4 -8 -10
-11 -5 -3 -10 -1 -10 4 0 6 5 11 10 11 6 0 10 -2 10 -4z m2345 -16 c3 -5 1
-10 -4 -10 -6 0 -11 5 -11 10 0 6 2 10 4 10 3 0 8 -4 11 -10z m-9105 -10 c0
-5 -4 -10 -10 -10 -5 0 -10 5 -10 10 0 6 5 10 10 10 6 0 10 -4 10 -10z m9635
-1 c10 -14 1 -21 -19 -13 -9 3 -13 10 -10 15 7 12 21 11 29 -2z m-8876 -5 c26
-6 31 -11 31 -35 0 -24 -4 -29 -25 -30 -14 -1 -31 -2 -37 -3 -7 -1 -12 7 -10
17 2 14 -5 17 -48 17 -35 0 -50 4 -50 13 0 8 3 17 7 20 8 9 90 9 132 1z m3321
-26 c13 -17 15 -25 7 -30 -9 -6 -8 -11 3 -18 8 -5 10 -10 4 -10 -7 0 -14 -9
-17 -20 -3 -11 -12 -20 -21 -20 -12 0 -15 12 -15 60 1 64 10 73 39 38z m2702
-39 c-2 -16 -10 -29 -17 -29 -7 0 -16 -6 -19 -12 -3 -7 -3 -2 0 12 4 14 11 27
15 28 5 2 9 18 10 35 0 25 2 28 8 13 4 -10 5 -31 3 -47z m2928 57 c0 -3 -4 -8
-10 -11 -5 -3 -10 -1 -10 4 0 6 5 11 10 11 6 0 10 -2 10 -4z m-5490 -37 c0 -6
-6 -16 -13 -24 -12 -11 -17 -10 -30 5 -17 20 -18 19 36 29 4 0 7 -4 7 -10z
m2297 -21 c-3 -8 -6 -5 -6 6 -1 11 2 17 5 13 3 -3 4 -12 1 -19z m3201 -5 c-4
-22 -22 -20 -26 1 -2 10 3 16 13 16 10 0 15 -7 13 -17z m-681 1 c-3 -3 -12 -4
-19 -1 -8 3 -5 6 6 6 11 1 17 -2 13 -5z m-217 -14 c0 -5 -4 -10 -10 -10 -5 0
-10 5 -10 10 0 6 5 10 10 10 6 0 10 -4 10 -10z m1205 0 c3 -5 1 -10 -4 -10 -6
0 -11 5 -11 10 0 6 2 10 4 10 3 0 8 -4 11 -10z m-9875 -10 c0 -5 -13 -10 -30
-10 -16 0 -30 5 -30 10 0 6 14 10 30 10 17 0 30 -4 30 -10z m5838 -45 c-4 -66
-22 -78 -26 -16 -4 49 2 71 18 71 7 0 10 -20 8 -55z m39 33 c-3 -8 -6 -5 -6 6
-1 11 2 17 5 13 3 -3 4 -12 1 -19z m3923 18 c0 -3 -4 -8 -10 -11 -5 -3 -10 -1
-10 4 0 6 5 11 10 11 6 0 10 -2 10 -4z m-3923 -83 c-3 -10 -5 -4 -5 12 0 17 2
24 5 18 2 -7 2 -21 0 -30z m-2272 -3 c3 -5 1 -10 -4 -10 -6 0 -11 5 -11 10 0
6 2 10 4 10 3 0 8 -4 11 -10z m-505 -30 c6 -11 8 -20 6 -20 -3 0 -10 9 -16 20
-6 11 -8 20 -6 20 3 0 10 -9 16 -20z m5783 13 c-13 -2 -33 -2 -45 0 -13 2 -3
4 22 4 25 0 35 -2 23 -4z m-118 -13 c-3 -5 -11 -10 -16 -10 -6 0 -7 5 -4 10 3
6 11 10 16 10 6 0 7 -4 4 -10z m-2935 -34 c0 -8 -4 -18 -10 -21 -5 -3 -10 3
-10 14 0 12 5 21 10 21 6 0 10 -6 10 -14z m43 -1 c-3 -9 -8 -14 -10 -11 -3 3
-2 9 2 15 9 16 15 13 8 -4z m-4500 -15 c3 -11 1 -18 -4 -14 -5 3 -9 12 -9 20
0 20 7 17 13 -6z m4868 -2 c3 -5 12 -2 19 7 7 8 19 15 27 15 19 0 46 -27 38
-39 -3 -6 2 -14 11 -19 12 -7 17 -28 20 -88 2 -59 7 -82 19 -91 16 -11 16 -14
1 -35 -22 -32 -20 -41 9 -34 20 5 25 3 25 -14 0 -11 5 -20 10 -20 6 0 10 7 10
16 0 16 21 15 27 -2 4 -13 -45 -35 -53 -23 -3 6 -12 5 -21 -2 -12 -11 -10 -15
19 -30 l33 -18 -30 -2 c-24 -2 -21 -3 15 -9 l45 -7 -47 -1 c-59 -2 -64 -21 -5
-24 l42 -1 -45 -7 c-48 -7 -50 -6 45 -28 38 -9 38 -10 9 -11 -41 -1 -49 -12
-21 -26 18 -9 23 -8 28 4 4 11 7 10 11 -7 5 -17 2 -22 -13 -22 -10 0 -19 5
-19 10 0 6 -19 10 -42 9 -33 0 -38 -2 -23 -9 11 -5 14 -9 6 -9 -10 -1 -12 -14
-9 -56 3 -31 1 -55 -5 -55 -5 0 -7 -7 -3 -15 3 -8 0 -15 -7 -15 -7 -1 -1 -10
13 -22 23 -19 23 -20 4 -14 -20 6 -22 2 -27 -36 -3 -24 -7 -52 -10 -63 -3 -11
-6 -46 -6 -78 -1 -36 -5 -56 -11 -52 -6 4 -6 -3 0 -21 13 -33 5 -61 -21 -69
-14 -5 -18 -12 -13 -31 5 -20 2 -24 -15 -24 -17 0 -21 6 -21 29 0 29 0 29 -61
29 -33 0 -63 3 -67 6 -3 4 -6 161 -7 349 0 188 -4 345 -9 348 -4 4 -3 15 2 26
6 10 8 24 4 30 -4 6 -6 25 -6 42 1 17 2 56 3 87 1 47 4 57 21 61 13 3 20 14
20 28 0 33 27 57 54 49 11 -4 24 -11 27 -16z m547 0 c-2 -14 -14 -26 -31 -33
-24 -8 -31 -6 -43 9 -12 17 -11 21 4 32 9 7 30 14 45 14 24 0 28 -4 25 -22z
m-5305 -2 c9 5 9 4 0 -6 -13 -15 -37 -4 -26 13 5 8 8 8 11 -1 2 -7 9 -9 15 -6z
m487 10 c0 -3 -4 -8 -10 -11 -5 -3 -10 -1 -10 4 0 6 5 11 10 11 6 0 10 -2 10
-4z m-620 -16 c0 -5 -4 -10 -10 -10 -5 0 -10 5 -10 10 0 6 5 10 10 10 6 0 10
-4 10 -10z m2920 -5 c8 -9 8 -15 2 -15 -6 0 -17 -3 -26 -6 -12 -4 -16 0 -16
15 0 24 22 28 40 6z m-2535 -5 c3 -5 1 -10 -4 -10 -6 0 -11 5 -11 10 0 6 2 10
4 10 3 0 8 -4 11 -10z m4101 -8 c14 -9 -2 -75 -16 -67 -12 7 -14 75 -2 75 4 0
12 -4 18 -8z m-1786 -22 c0 -5 -4 -10 -10 -10 -5 0 -10 5 -10 10 0 6 5 10 10
10 6 0 10 -4 10 -10z m4220 -72 c0 -6 -7 -5 -15 2 -8 7 -15 17 -15 22 0 6 7 5
15 -2 8 -7 15 -17 15 -22z m556 23 c-3 -5 -15 -7 -26 -4 -28 7 -25 13 6 13 14
0 23 -4 20 -9z m-452 -16 c11 -8 14 -15 7 -15 -7 0 -9 -4 -6 -10 3 -5 -4 -10
-16 -10 -17 0 -19 3 -10 13 8 10 7 17 -1 25 -17 17 3 14 26 -3z m-2534 -30 c0
-16 -6 -25 -15 -25 -13 0 -15 17 -6 48 1 1 6 2 11 2 6 0 10 -11 10 -25z m67
-7 c-3 -8 -6 -5 -6 6 -1 11 2 17 5 13 3 -3 4 -12 1 -19z m2656 -19 c58 -19
109 -49 62 -36 -11 3 -58 14 -104 23 -58 13 -78 20 -65 25 29 12 40 10 107
-12z m-4643 1 c0 -5 -4 -10 -10 -10 -5 0 -10 5 -10 10 0 6 5 10 10 10 6 0 10
-4 10 -10z m2867 -7 c32 -4 50 -10 46 -16 -4 -6 2 -8 14 -5 12 3 27 2 34 -3 8
-5 -45 -9 -128 -9 -137 0 -195 12 -116 25 21 3 45 10 53 15 8 5 22 6 30 4 8
-3 39 -8 67 -11z m-410 -25 c-3 -8 -6 -5 -6 6 -1 11 2 17 5 13 3 -3 4 -12 1
-19z m-4347 2 c0 -5 -4 -10 -10 -10 -5 0 -10 5 -10 10 0 6 5 10 10 10 6 0 10
-4 10 -10z m50 2 c0 -13 -12 -22 -22 -16 -10 6 -1 24 13 24 5 0 9 -4 9 -8z
m3520 -11 c13 -26 14 -92 0 -71 -7 11 -10 3 -10 -30 0 -25 -6 -57 -14 -71 -8
-16 -10 -32 -5 -40 5 -8 6 -28 3 -45 -6 -34 11 -56 20 -26 3 10 4 39 1 64 -5
40 -3 46 16 51 18 5 20 2 16 -21 -17 -91 -27 -151 -29 -180 -1 -19 -6 -36 -10
-38 -4 -2 -10 -25 -14 -49 -11 -77 -38 -67 -37 14 1 25 -1 38 -4 29 -2 -10 -9
-18 -15 -18 -10 0 -8 58 6 295 3 50 10 84 19 90 18 13 29 45 15 42 -6 -1 -13
4 -15 11 -8 21 45 14 57 -7z m307 -43 c-2 -13 -4 -3 -4 22 0 25 2 35 4 23 2
-13 2 -33 0 -45z m573 52 c0 -5 -4 -10 -10 -10 -5 0 -10 5 -10 10 0 6 5 10 10
10 6 0 10 -4 10 -10z m2236 -12 c5 -2 27 -9 49 -16 22 -6 63 -17 90 -26 69
-20 226 -48 233 -42 3 3 10 2 16 -3 10 -8 78 -27 284 -78 34 -9 65 -20 68 -24
2 -5 -16 -2 -41 5 -40 13 -46 12 -55 -2 -9 -15 -9 -16 -10 -1 0 11 -16 21 -47
29 -53 14 -122 31 -198 51 -27 7 -70 12 -95 11 -24 -1 -47 2 -50 6 -3 5 -39
16 -80 25 -98 23 -213 57 -223 67 -9 8 43 7 59 -2z m-2866 -68 c0 -52 -3 -70
-14 -70 -9 0 -15 19 -19 62 -6 67 -3 78 19 78 11 0 14 -16 14 -70z m997 37
c-2 -7 2 -25 10 -40 13 -27 13 -28 -4 -25 -10 2 -17 9 -16 15 1 6 -6 9 -17 6
-11 -3 -17 -9 -14 -14 3 -5 -38 -8 -93 -8 -59 1 -84 4 -64 8 29 5 32 8 19 18
-8 7 -27 14 -42 15 -18 2 -26 7 -24 18 2 11 21 16 68 20 95 7 182 1 177 -13z
m2443 13 c0 -5 -12 -10 -26 -10 -14 0 -23 4 -19 10 3 6 15 10 26 10 10 0 19
-4 19 -10z m-8752 -11 c18 -6 30 -15 27 -20 -7 -11 -95 -9 -95 2 0 6 24 25 36
29 1 0 15 -5 32 -11z m2636 0 c8 7 27 5 55 -5 24 -8 53 -12 65 -8 30 10 76 12
76 4 0 -5 6 -7 13 -6 17 2 15 -18 -3 -21 -8 -1 -20 3 -27 9 -9 7 -13 7 -13 -2
0 -9 -16 -10 -62 -5 -161 17 -168 18 -168 35 0 6 11 5 26 0 17 -7 31 -7 38 -1z
m2772 -33 c-2 -14 0 -26 6 -28 7 -3 8 -13 2 -31 -8 -24 -12 -26 -26 -15 -9 7
-19 24 -23 37 -6 20 -4 23 9 18 12 -5 16 0 16 18 0 14 5 25 10 25 6 0 8 -11 6
-24z m514 14 c0 -5 -2 -10 -4 -10 -3 0 -8 5 -11 10 -3 6 -1 10 4 10 6 0 11 -4
11 -10z m-2830 -30 c0 -5 -2 -10 -4 -10 -3 0 -8 5 -11 10 -3 6 -1 10 4 10 6 0
11 -4 11 -10z m2860 -15 c0 -8 -4 -15 -10 -15 -5 0 -7 7 -4 15 4 8 8 15 10 15
2 0 4 -7 4 -15z m-5830 -6 c0 -14 -25 -39 -39 -39 -6 0 -11 7 -11 15 0 9 6 12
15 9 9 -4 15 0 15 10 0 9 5 16 10 16 6 0 10 -5 10 -11z m3180 -9 c-8 -5 -17
-7 -19 -4 -3 3 1 9 9 14 8 5 17 7 19 4 3 -3 -1 -9 -9 -14z m-3310 -12 c0 -9 3
-9 12 0 7 7 18 12 25 12 17 0 17 -20 1 -20 -7 0 -24 -9 -37 -19 l-24 -19 24 3
c13 2 40 6 59 10 30 5 32 4 11 -5 -17 -8 -22 -16 -18 -33 3 -12 8 -32 11 -45
4 -18 -1 -25 -21 -33 -14 -5 -28 -7 -31 -4 -3 2 -11 0 -19 -6 -10 -9 -13 -8
-13 0 0 8 -8 10 -19 6 -13 -4 -23 0 -29 11 -8 15 -14 15 -79 0 -90 -20 -108
-28 -108 -45 0 -8 -6 -16 -14 -19 -8 -3 -11 0 -7 7 13 21 -87 11 -174 -18 -83
-28 -85 -28 -93 -9 -5 14 -1 27 15 44 25 26 44 31 51 12 3 -10 7 -10 19 -1 8
7 36 16 61 19 25 4 48 13 51 20 3 7 14 11 26 9 11 -2 20 1 20 7 0 5 6 8 14 5
8 -3 17 -1 20 6 3 9 7 9 13 1 6 -8 36 -6 113 7 110 20 166 37 123 38 -21 1
-22 10 -7 59 4 15 24 16 24 0z m8606 -16 c-7 -6 -76 10 -76 18 0 4 18 2 40 -3
22 -6 38 -13 36 -15z m-2646 11 c0 -5 -5 -15 -10 -23 -8 -12 -10 -11 -10 8 0
12 5 22 10 22 6 0 10 -3 10 -7z m385 -3 c21 -34 23 -288 2 -305 -7 -7 -59 -9
-134 -7 l-121 4 -7 81 c-4 45 -5 112 -3 149 1 36 0 64 -4 61 -5 -2 -8 0 -8 6
0 5 6 12 13 14 23 10 256 7 262 -3z m-1128 -22 c-3 -8 -6 -5 -6 6 -1 11 2 17
5 13 3 -3 4 -12 1 -19z m-407 -12 c0 -3 -4 -8 -10 -11 -5 -3 -10 -1 -10 4 0 6
5 11 10 11 6 0 10 -2 10 -4z m-5447 -13 c-7 -2 -19 -2 -25 0 -7 3 -2 5 12 5
14 0 19 -2 13 -5z m480 -15 c3 -9 -6 -13 -24 -14 -26 -1 -27 0 -11 12 22 17
29 17 35 2z m5374 -120 c-2 -24 -4 -5 -4 42 0 47 2 66 4 43 2 -24 2 -62 0 -85z
m-2347 102 c12 -8 9 -10 -12 -10 -16 0 -28 5 -28 10 0 13 20 13 40 0z m250
-25 c13 2 20 -2 20 -11 0 -8 -6 -14 -12 -14 -9 0 -13 -17 -13 -53 0 -36 -4
-51 -12 -49 -7 1 -13 -5 -13 -14 0 -8 -4 -13 -9 -10 -5 3 -7 15 -4 26 3 11 0
20 -6 20 -6 0 -11 7 -11 16 0 9 6 14 13 11 8 -3 14 3 14 14 1 11 -2 17 -7 14
-16 -10 -22 16 -9 47 10 24 14 27 21 15 4 -9 17 -14 28 -12z m3570 -66 c0 -65
-4 -84 -19 -100 -19 -21 -19 -20 -20 77 -1 67 3 100 11 105 22 14 28 -2 28
-82z m820 71 c0 -11 -4 -20 -10 -20 -5 0 -10 9 -10 20 0 11 5 20 10 20 6 0 10
-9 10 -20z m-6096 -22 c-5 -7 0 -9 14 -6 16 4 20 1 19 -13 -1 -13 -9 -19 -27
-19 -41 0 -67 34 -32 43 30 8 33 7 26 -5z m-57 -4 c-3 -3 -12 -4 -19 -1 -8 3
-5 6 6 6 11 1 17 -2 13 -5z m1683 -9 c0 -8 -4 -15 -10 -15 -5 0 -10 7 -10 15
0 8 5 15 10 15 6 0 10 -7 10 -15z m4677 -24 c26 -30 30 -66 7 -75 -13 -5 -15
-1 -9 21 6 27 6 27 -10 8 -16 -20 -16 -20 -12 3 5 20 3 21 -10 10 -14 -11 -15
-10 -8 11 4 15 3 21 -3 17 -10 -6 -24 29 -15 38 9 8 37 -7 60 -33z m-4402 19
c3 -5 1 -10 -4 -10 -6 0 -11 5 -11 10 0 6 2 10 4 10 3 0 8 -4 11 -10z m1872
-102 c-3 -8 -6 -5 -6 6 -1 11 2 17 5 13 3 -3 4 -12 1 -19z m2676 8 c8 -8 22
-14 33 -13 17 2 19 -7 22 -102 1 -58 -2 -109 -7 -114 -6 -6 -26 -2 -55 13
l-46 22 0 88 c0 49 3 95 6 104 8 20 28 21 47 2z m-4488 -6 c3 -5 1 -10 -4 -10
-6 0 -11 5 -11 10 0 6 2 10 4 10 3 0 8 -4 11 -10z m-521 -19 c3 -4 -6 -6 -19
-3 -14 2 -25 6 -25 8 0 8 39 4 44 -5z m211 -1 c3 -5 1 -10 -4 -10 -6 0 -11 5
-11 10 0 6 2 10 4 10 3 0 8 -4 11 -10z m55 -10 c0 -5 -5 -10 -11 -10 -5 0 -7
5 -4 10 3 6 8 10 11 10 2 0 4 -4 4 -10z m4979 -59 c1 -11 4 -11 16 -1 13 10
15 9 15 -8 0 -12 4 -23 9 -27 13 -8 14 -252 1 -260 -17 -10 -77 33 -101 72
-19 30 -22 51 -23 137 -1 70 3 108 12 123 l14 23 29 -23 c15 -12 28 -28 28
-36z m-4994 29 c3 -5 3 -21 -1 -35 -6 -24 -8 -25 -21 -12 -9 9 -13 23 -8 36 7
22 20 27 30 11z m-70 -39 c-3 -6 -11 -11 -16 -11 -5 0 -4 6 3 14 14 16 24 13
13 -3z m337 -13 c-9 -9 -12 -7 -12 12 0 19 3 21 12 12 9 -9 9 -15 0 -24z
m1615 10 c-3 -8 -6 -5 -6 6 -1 11 2 17 5 13 3 -3 4 -12 1 -19z m943 -40 c0 -5
-4 -8 -10 -8 -5 0 -10 10 -10 23 0 18 2 19 10 7 5 -8 10 -18 10 -22z m-2924 9
c4 -4 -7 -7 -24 -7 -17 0 -33 4 -36 9 -7 10 49 9 60 -2z m87 -1 c9 -7 17 -17
17 -21 0 -4 -7 -2 -15 5 -10 8 -15 9 -15 2 0 -6 6 -15 13 -19 8 -4 17 -20 21
-35 5 -21 3 -28 -9 -28 -9 0 -15 -9 -15 -25 0 -28 -15 -34 -24 -9 -9 24 -7 44
5 44 5 0 7 -6 4 -12 -4 -7 1 -4 9 6 14 18 14 21 -4 33 -11 8 -18 18 -15 23 3
4 0 10 -7 12 -12 4 -4 38 9 38 4 0 16 -7 26 -14z m2754 -28 c-3 -8 -6 -5 -6 6
-1 11 2 17 5 13 3 -3 4 -12 1 -19z m2488 -6 c46 -26 50 -30 47 -62 -1 -19 -7
-37 -12 -40 -7 -4 -6 -18 1 -39 13 -36 6 -130 -12 -163 -10 -18 -12 -18 -28
-4 -10 9 -22 16 -28 16 -5 0 -18 9 -29 21 -16 18 -19 39 -20 160 -2 159 -4
158 81 111z m-4375 8 c0 -5 -4 -10 -10 -10 -5 0 -10 5 -10 10 0 6 5 10 10 10
6 0 10 -4 10 -10z m750 -17 c0 -14 -2 -15 -9 -4 -7 11 -9 11 -14 0 -4 -10 -6
-9 -6 4 -1 9 6 17 14 17 8 0 15 -8 15 -17z m-1880 -15 c0 -19 -2 -20 -10 -8
-13 19 -13 30 0 30 6 0 10 -10 10 -22z m1835 1 c-10 -15 -25 -10 -19 6 4 8 10
12 15 9 5 -3 7 -10 4 -15z m-1615 -23 c0 -2 -6 -16 -14 -31 -13 -26 -14 -26
-21 -6 -8 25 1 41 21 41 8 0 14 -2 14 -4z m4809 -20 c10 -12 8 -13 -8 -9 -12
3 -21 9 -21 14 0 14 16 11 29 -5z m803 -56 c19 0 101 -41 128 -65 8 -7 24 -15
35 -17 15 -2 20 -11 20 -37 0 -39 -15 -49 -38 -26 -27 26 -30 17 -23 -57 7
-73 17 -98 42 -98 17 0 18 -39 1 -60 -24 -31 -79 -19 -149 33 -22 16 -30 18
-42 8 -12 -10 -17 -9 -25 7 -6 11 -25 22 -42 26 -51 10 -69 32 -69 85 0 25 5
64 10 87 8 34 6 48 -10 80 -24 47 -25 58 -3 83 16 19 17 19 81 -15 36 -19 74
-34 84 -34z m-5295 18 c-3 -8 -6 -5 -6 6 -1 11 2 17 5 13 3 -3 4 -12 1 -19z
m-562 3 c3 -6 -12 -12 -32 -14 -35 -3 -34 -4 10 -5 27 -1 47 -7 47 -13 0 -7
-9 -9 -22 -5 -13 3 -35 6 -50 6 -21 0 -28 5 -28 20 0 16 7 20 34 20 19 0 37
-4 41 -9z m412 -7 c-3 -3 -12 -4 -19 -1 -8 3 -5 6 6 6 11 1 17 -2 13 -5z
m3084 -19 c44 -6 47 -8 53 -40 4 -18 12 -36 19 -39 9 -3 9 -7 1 -13 -8 -5 -14
-74 -18 -203 -3 -107 -7 -204 -10 -215 -2 -11 -5 -29 -6 -40 -1 -11 -3 -15 -6
-10 -2 6 -44 9 -102 8 -53 -1 -109 3 -125 9 l-27 11 2 266 3 266 48 3 c26 2
47 7 47 11 0 5 17 4 38 0 20 -5 58 -11 83 -14z m-2421 5 c-20 -13 -43 -13 -35
0 3 6 16 10 28 10 18 0 19 -2 7 -10z m-515 -10 c3 -5 1 -10 -4 -10 -6 0 -11 5
-11 10 0 6 2 10 4 10 3 0 8 -4 11 -10z m-451 -15 c-4 -8 -8 -15 -10 -15 -2 0
-4 7 -4 15 0 8 4 15 10 15 5 0 7 -7 4 -15z m936 -1 c0 -2 -12 -4 -26 -4 -14 0
-23 4 -20 9 6 8 46 4 46 -5z m4920 6 c0 -5 -4 -10 -10 -10 -5 0 -10 5 -10 10
0 6 5 10 10 10 6 0 10 -4 10 -10z m-5780 -20 c0 -5 -2 -10 -4 -10 -3 0 -8 5
-11 10 -3 6 -1 10 4 10 6 0 11 -4 11 -10z m207 -62 c-3 -8 -6 -5 -6 6 -1 11 2
17 5 13 3 -3 4 -12 1 -19z m356 5 c-7 -2 -19 -2 -25 0 -7 3 -2 5 12 5 14 0 19
-2 13 -5z m-526 -25 c-3 -8 -6 -5 -6 6 -1 11 2 17 5 13 3 -3 4 -12 1 -19z
m3000 -90 c-3 -8 -6 -5 -6 6 -1 11 2 17 5 13 3 -3 4 -12 1 -19z m-3387 -39 c0
-5 -4 -9 -10 -9 -5 0 -10 7 -10 16 0 8 5 12 10 9 6 -3 10 -10 10 -16z m-83 -5
c-3 -3 -12 -4 -19 -1 -8 3 -5 6 6 6 11 1 17 -2 13 -5z m4111 -25 c4 -24 3 -24
-12 -4 -19 24 -20 38 -3 33 6 -3 13 -15 15 -29z m-6838 -13 c0 -2 -7 -6 -15
-10 -8 -3 -15 -1 -15 4 0 6 7 10 15 10 8 0 15 -2 15 -4z m40 -21 c-35 -20 -81
-41 -108 -50 -20 -6 -23 -4 -20 12 2 10 12 18 23 19 11 1 31 6 45 11 47 19 55
21 70 22 8 0 4 -6 -10 -14z m3315 -27 c0 -42 -30 -51 -46 -15 -8 17 -17 24
-28 20 -12 -4 -13 -3 -3 5 8 5 24 8 38 6 13 -1 24 2 24 7 0 5 3 9 8 9 4 0 7
-15 7 -32z m-345 12 c0 -5 -4 -10 -10 -10 -5 0 -10 5 -10 10 0 6 5 10 10 10 6
0 10 -4 10 -10z m605 0 c3 -5 1 -10 -4 -10 -6 0 -11 5 -11 10 0 6 2 10 4 10 3
0 8 -4 11 -10z m-605 -42 c0 -18 -2 -20 -9 -8 -6 8 -7 18 -5 22 9 14 14 9 14
-14z m110 18 c0 -11 -19 -15 -25 -6 -3 5 1 10 9 10 9 0 16 -2 16 -4z m663 -3
c-7 -2 -21 -2 -30 0 -10 3 -4 5 12 5 17 0 24 -2 18 -5z m3054 -35 c-3 -7 -5
-2 -5 12 0 14 2 19 5 13 2 -7 2 -19 0 -25z m243 22 c0 -5 -7 -10 -16 -10 -8 0
-12 5 -9 10 3 6 10 10 16 10 5 0 9 -4 9 -10z m-7210 -19 c-19 -10 -46 -22 -60
-26 -40 -12 -11 12 35 29 55 20 67 19 25 -3z m4565 -11 c-3 -5 -20 -10 -36
-10 -18 0 -28 4 -24 10 3 6 20 10 36 10 18 0 28 -4 24 -10z m-645 -25 c0 -8
-9 -15 -20 -15 -22 0 -27 15 -7 23 21 9 27 7 27 -8z m-836 -6 c-6 -11 -44 -12
-44 -1 0 4 11 8 25 8 14 1 22 -2 19 -7z m56 7 c0 -3 -4 -8 -10 -11 -5 -3 -10
-1 -10 4 0 6 5 11 10 11 6 0 10 -2 10 -4z m1510 -36 c0 -5 -2 -10 -4 -10 -3 0
-8 5 -11 10 -3 6 -1 10 4 10 6 0 11 -4 11 -10z m604 -21 c8 -12 12 -29 8 -38
-6 -14 -7 -14 -10 2 -2 9 -8 17 -13 17 -5 0 -9 6 -9 14 0 8 -6 17 -12 19 -8 3
-6 6 4 6 9 1 24 -9 32 -20z m-2310 -9 c3 -3 -10 -7 -29 -8 -19 -2 -35 1 -35 5
0 9 55 11 64 3z m506 -25 c0 -8 -11 -17 -25 -21 -18 -4 -25 -13 -25 -30 0 -28
-17 -32 -22 -6 -4 18 39 70 60 71 6 1 12 -6 12 -14z m-148 -12 c13 -12 18 -13
18 -3 0 7 3 11 6 8 3 -4 0 -16 -6 -28 -10 -18 -9 -24 1 -31 18 -11 6 -21 -15
-13 -15 6 -20 20 -18 54 0 8 -5 18 -11 22 -7 4 -8 8 -3 8 5 0 18 -7 28 -17z
m711 -13 c-3 -11 -9 -17 -14 -14 -14 8 -10 34 5 34 9 0 12 -7 9 -20z m-653
-26 c0 -13 -4 -24 -9 -24 -11 0 -19 30 -14 48 7 20 23 3 23 -24z m-224 -1
c-10 -10 -19 5 -10 18 6 11 8 11 12 0 2 -7 1 -15 -2 -18z m759 17 c3 -5 1 -10
-4 -10 -6 0 -11 5 -11 10 0 6 2 10 4 10 3 0 8 -4 11 -10z m1830 0 c-3 -5 -10
-10 -16 -10 -5 0 -9 5 -9 10 0 6 7 10 16 10 8 0 12 -4 9 -10z m-702 -7 c-7 -2
-19 -2 -25 0 -7 3 -2 5 12 5 14 0 19 -2 13 -5z m957 -18 c0 -14 -4 -25 -10
-25 -11 0 -14 33 -3 43 11 11 13 8 13 -18z m-2550 0 c0 -8 -4 -15 -10 -15 -5
0 -10 7 -10 15 0 8 5 15 10 15 6 0 10 -7 10 -15z m1040 5 c0 -5 -2 -10 -4 -10
-3 0 -8 5 -11 10 -3 6 -1 10 4 10 6 0 11 -4 11 -10z m-920 -10 c0 -5 -5 -10
-11 -10 -5 0 -7 5 -4 10 3 6 8 10 11 10 2 0 4 -4 4 -10z m104 -5 c-6 -16 -24
-21 -24 -7 0 11 11 22 21 22 5 0 6 -7 3 -15z m791 5 c3 -5 -1 -10 -10 -10 -9
0 -13 5 -10 10 3 6 8 10 10 10 2 0 7 -4 10 -10z m801 -5 c-3 -8 -1 -15 3 -15
5 0 12 6 14 13 3 6 6 -1 6 -17 1 -22 -2 -26 -12 -18 -8 7 -18 7 -27 2 -22 -14
-30 -12 -30 8 0 14 2 15 9 3 8 -12 11 -9 16 12 4 15 12 27 17 27 6 0 8 -7 4
-15z m-145 -38 c16 3 29 1 29 -4 0 -6 -69 -10 -167 -10 -93 -1 -154 2 -138 6
17 4 74 7 128 6 61 -1 97 2 97 9 0 6 4 6 11 -1 7 -7 25 -9 40 -6z m279 3 c0
-5 -4 -10 -10 -10 -5 0 -10 5 -10 10 0 6 5 10 10 10 6 0 10 -4 10 -10z m-740
-10 c0 -6 -23 -9 -52 -9 -49 2 -51 2 -18 9 53 11 70 11 70 0z m113 1 c21 -2 3
-21 -20 -22 -28 -1 -28 -1 5 -11 35 -12 42 -37 17 -58 -13 -11 -11 -17 16 -51
20 -26 41 -40 63 -45 33 -6 33 -6 25 -47 -11 -52 -49 -158 -62 -175 -16 -20
-20 -6 -18 61 1 40 -4 72 -14 91 -8 15 -15 39 -15 52 0 12 -4 26 -10 29 -5 3
-10 15 -10 26 0 31 -44 42 -152 36 -54 -3 -98 -1 -98 3 0 5 14 22 31 39 36 36
69 41 69 10 0 -14 5 -19 18 -17 9 2 17 10 17 18 0 9 17 19 45 26 26 7 35 12
23 13 -14 1 -23 7 -23 17 0 12 9 14 43 10 23 -3 45 -5 50 -5z m402 -1 c3 -5 1
-10 -4 -10 -6 0 -11 5 -11 10 0 6 2 10 4 10 3 0 8 -4 11 -10z m-760 -10 c3 -5
1 -10 -4 -10 -6 0 -11 5 -11 10 0 6 2 10 4 10 3 0 8 -4 11 -10z m120 0 c-3 -5
-12 -7 -20 -3 -21 7 -19 13 6 13 11 0 18 -4 14 -10z m-273 -32 c4 -7 8 -24 8
-37 0 -13 3 -21 7 -17 4 3 21 -22 38 -56 17 -36 40 -67 52 -73 12 -5 24 -16
26 -25 2 -8 19 15 37 53 19 37 38 67 42 67 4 0 5 -6 3 -12 -5 -14 -13 -117
-14 -185 -1 -24 -8 -48 -17 -58 -15 -15 -18 -15 -35 1 -11 9 -19 25 -19 34 0
10 -6 23 -14 29 -8 7 -17 22 -20 35 -3 12 -26 37 -51 55 -25 18 -45 38 -45 44
0 7 7 3 15 -7 19 -25 19 -16 -1 45 -9 27 -20 47 -24 44 -8 -5 -60 42 -60 55 0
20 60 26 72 8z m638 -14 c0 -9 -11 -14 -30 -14 -21 0 -28 4 -24 14 6 15 33 26
47 19 4 -2 7 -11 7 -19z m142 15 c-13 -12 -52 -20 -52 -11 0 15 10 20 35 18
13 0 21 -4 17 -7z m-612 -9 c0 -5 -6 -10 -14 -10 -8 0 -18 5 -21 10 -3 6 3 10
14 10 12 0 21 -4 21 -10z m-2427 -9 c4 0 3 -10 -3 -20 -8 -17 -6 -20 19 -26
49 -11 56 -27 37 -94 -9 -32 -14 -65 -10 -74 3 -8 1 -18 -5 -22 -7 -3 -11 2
-11 14 0 12 -4 21 -10 21 -5 0 -10 -13 -10 -29 0 -43 -10 -61 -32 -61 -11 0
-16 -4 -12 -11 3 -6 15 -9 25 -6 14 4 18 0 17 -18 -1 -12 -7 -21 -13 -20 -45
14 -65 14 -63 3 2 -7 8 -16 13 -20 12 -9 13 -9 -77 -10 -50 -1 -68 -5 -68 -15
0 -20 -30 -16 -31 5 -1 16 -2 16 -6 0 -2 -10 -11 -18 -19 -18 -8 0 -17 -6 -20
-14 -4 -10 -21 -14 -56 -13 -27 0 -53 -4 -56 -10 -9 -13 -72 -34 -83 -27 -5 3
-12 -2 -15 -10 -3 -9 -18 -16 -33 -17 -23 0 -24 -1 -6 -9 11 -5 14 -9 7 -9 -7
-1 -23 4 -35 10 -16 9 -22 9 -25 -1 -3 -9 -6 -9 -13 1 -6 9 -12 10 -16 4 -10
-12 -43 -12 -62 -1 -8 5 -16 4 -21 -4 -5 -8 -9 -7 -14 5 -3 9 -10 14 -15 10
-15 -9 -24 14 -12 29 12 14 4 49 -9 41 -4 -2 -10 -18 -13 -33 -7 -36 -42 -50
-44 -19 -3 32 -23 75 -39 81 -11 4 -14 -6 -14 -47 0 -29 -4 -58 -9 -66 -11
-17 -39 -23 -47 -10 -12 19 -26 8 -20 -16 9 -36 -9 -31 -34 10 -12 19 -24 35
-26 35 -3 0 -20 -11 -38 -25 -18 -14 -36 -22 -39 -19 -3 4 -9 -5 -12 -19 -5
-20 -12 -24 -31 -21 -17 3 -24 0 -24 -11 0 -8 -4 -15 -10 -15 -13 0 -30 34
-30 62 0 17 -3 20 -9 9 -5 -8 -7 -19 -5 -25 2 -6 -8 -19 -23 -28 -16 -10 -23
-18 -16 -18 6 0 9 -9 6 -20 -11 -43 -33 -13 -33 46 0 20 -4 33 -9 30 -5 -3
-12 22 -17 57 -7 56 -8 59 -14 29 -9 -37 7 -125 21 -116 5 3 9 -5 9 -18 0 -14
-8 -27 -22 -33 -13 -6 -26 -24 -30 -42 -10 -37 -19 -41 -42 -17 -14 13 -16 14
-16 0 0 -9 -8 -14 -20 -13 -11 1 -20 5 -20 10 0 11 -32 4 -51 -12 -9 -7 -14
-22 -12 -32 7 -27 -26 -37 -43 -14 -13 17 -14 17 -15 -11 -2 -24 -2 -25 -6 -6
-4 21 -6 22 -17 7 -7 -9 -26 -17 -46 -17 -19 0 -43 -5 -52 -9 -25 -13 -32 6
-35 91 -1 41 -7 109 -13 150 -6 41 -11 88 -11 103 0 17 -4 25 -10 21 -8 -4 -9
3 -5 23 4 16 7 81 8 144 0 63 3 119 7 124 3 6 11 33 16 60 l11 50 84 1 c47 0
92 -1 101 -3 14 -3 36 -42 53 -96 3 -10 11 -15 17 -11 6 3 15 0 20 -7 6 -10 9
-4 9 19 0 17 5 32 10 32 6 0 10 9 10 20 0 17 12 26 23 18 2 -2 11 3 19 10 25
21 379 16 431 -6 16 -7 31 -12 35 -12 3 0 18 -12 34 -27 l27 -26 10 24 c7 20
5 26 -13 36 -20 11 -20 12 9 19 52 14 165 11 174 -5 7 -11 24 -13 70 -8 36 3
61 1 61 -5 0 -5 4 -7 9 -4 5 4 11 1 13 -6 3 -7 13 -3 27 11 16 16 40 26 75 30
43 5 354 7 379 2z m3055 -121 c-3 -67 -8 -83 -28 -105 -15 -16 -23 -35 -22
-55 2 -36 2 -37 -2 -125 -1 -38 -6 -86 -10 -105 -4 -19 -8 -44 -10 -55 -4 -31
-38 -29 -73 5 -37 34 -38 42 -22 124 11 50 15 58 39 63 27 5 28 7 28 79 1 66
17 143 43 212 7 18 32 36 57 41 2 1 2 -35 0 -79z m-801 38 c-3 -8 -6 -5 -6 6
-1 11 2 17 5 13 3 -3 4 -12 1 -19z m5517 -23 c3 -8 1 -15 -4 -15 -6 0 -10 7
-10 15 0 8 2 15 4 15 2 0 6 -7 10 -15z m-1976 -11 c29 -20 28 -34 -3 -34 -21
0 -45 24 -45 44 0 11 26 6 48 -10z m-4 -59 c3 -8 1 -25 -4 -37 -5 -14 -9 -17
-10 -8 -1 8 -3 25 -4 38 -3 25 9 30 18 7z m-3497 -17 c-3 -8 -6 -5 -6 6 -1 11
2 17 5 13 3 -3 4 -12 1 -19z m3270 -155 c-7 -133 -4 -150 39 -238 27 -56 35
-63 77 -60 46 2 77 29 77 66 0 15 4 30 9 33 11 7 21 56 10 56 -4 0 -10 -6 -12
-12 -3 -8 -6 -6 -6 5 -1 9 -5 17 -11 17 -5 0 -10 5 -10 10 0 6 13 8 29 5 24
-4 31 -1 36 15 4 12 1 28 -7 37 -11 14 -11 16 2 8 13 -8 13 -7 1 8 -8 10 -12
20 -9 22 9 10 38 -7 38 -21 0 -19 16 -18 24 2 10 25 7 34 -9 34 -8 0 -15 7
-15 15 0 13 4 14 20 5 16 -9 22 -8 26 5 5 13 10 11 31 -10 21 -20 23 -27 13
-40 -10 -12 -10 -15 4 -15 24 0 23 -88 -1 -106 -15 -11 -16 -15 -4 -26 12 -11
13 -10 8 5 -9 24 10 22 23 -3 8 -14 8 -26 0 -40 -6 -12 -8 -30 -5 -40 4 -11 2
-20 -3 -20 -6 0 -13 -7 -16 -16 -6 -15 -4 -15 10 -3 15 12 15 10 1 -22 -18
-43 -5 -58 53 -66 40 -6 61 -30 38 -45 -11 -6 -10 -8 0 -8 39 0 56 -68 27
-106 -8 -10 -15 -29 -15 -41 0 -13 -9 -37 -20 -55 -14 -23 -20 -27 -20 -15 0
20 -41 40 -51 24 -4 -5 -12 -7 -18 -3 -23 14 -27 -68 -6 -129 6 -16 5 -17 -4
-5 -10 12 -11 9 -9 -15 1 -17 -1 -36 -6 -43 -4 -7 -3 -18 2 -25 5 -7 12 -29
14 -50 3 -30 0 -41 -14 -48 -16 -9 -17 -12 -3 -33 15 -22 14 -24 -10 -28 -22
-5 -23 -3 -13 10 11 13 10 15 -4 9 -14 -5 -16 1 -13 41 5 58 -6 114 -24 120
-10 3 -12 -2 -9 -22 3 -15 2 -29 -2 -31 -4 -2 -5 -16 -2 -30 3 -18 0 -25 -12
-25 -9 0 -16 5 -16 10 0 6 -8 10 -17 10 -14 0 -11 -6 12 -24 26 -22 28 -27 18
-45 -8 -13 -9 -22 -3 -26 19 -12 11 -45 -10 -45 -17 0 -19 3 -11 19 9 15 7 20
-9 24 -24 6 -30 0 -30 -30 0 -12 -3 -23 -7 -23 -15 1 -43 27 -43 41 0 8 -5 6
-13 -5 -8 -11 -20 -16 -28 -13 -10 4 -9 6 4 6 15 1 15 4 5 22 -11 17 -10 22 5
33 15 12 15 14 3 19 -9 4 -22 -3 -31 -16 -15 -21 -15 -21 -15 11 0 18 -8 40
-19 51 -22 22 -18 60 8 62 14 1 13 2 -1 6 -10 2 -18 9 -18 15 0 5 -7 8 -15 4
-11 -4 -15 2 -15 23 0 16 -7 31 -15 35 -8 3 -15 12 -15 20 0 7 -7 17 -16 20
-9 3 -14 12 -11 20 3 8 0 22 -7 31 -12 17 -14 17 -38 1 -25 -16 -27 -16 -31 1
-4 15 -5 14 -6 -4 -1 -27 18 -41 30 -22 6 10 9 8 9 -8 0 -28 -35 -32 -49 -5
-12 23 -12 110 0 118 5 3 6 10 2 17 -8 13 -5 72 11 197 l12 95 26 -44 c26 -44
26 -45 7 -59 -10 -7 -19 -21 -19 -30 0 -15 2 -15 10 -2 9 13 11 13 20 0 8 -12
10 -11 10 8 0 12 5 22 10 22 6 0 10 15 10 34 0 29 -3 33 -20 29 -23 -6 -26 6
-6 32 12 17 16 18 32 5 18 -14 18 -14 4 5 -8 11 -21 28 -29 37 -10 14 -15 55
-17 168 -3 184 7 211 80 219 5 1 6 -52 3 -126z m241 70 c2 -31 -16 -66 -24
-47 -3 7 -14 10 -24 7 -11 -3 -20 -2 -20 2 0 7 56 65 63 65 1 0 4 -12 5 -27z
m42 -20 c0 -21 -3 -24 -9 -14 -5 8 -7 20 -4 28 8 21 13 15 13 -14z m-158 -112
c-7 -30 -9 -32 -21 -17 -23 27 -31 18 -31 -35 0 -31 -4 -48 -10 -44 -5 3 -10
23 -10 43 0 27 8 44 32 69 37 38 50 33 40 -16z m-3331 -34 c-8 -8 -11 -7 -11
4 0 20 13 34 18 19 3 -7 -1 -17 -7 -23z m-2581 13 c0 -5 -2 -10 -4 -10 -3 0
-8 5 -11 10 -3 6 -1 10 4 10 6 0 11 -4 11 -10z m260 -10 c0 -5 -2 -10 -4 -10
-3 0 -8 5 -11 10 -3 6 -1 10 4 10 6 0 11 -4 11 -10z m5715 0 c3 -5 1 -10 -4
-10 -6 0 -11 5 -11 10 0 6 2 10 4 10 3 0 8 -4 11 -10z m-3368 -54 c-1 -45 -17
-35 -17 10 0 19 4 33 9 30 5 -3 9 -21 8 -40z m-2760 18 c-3 -3 -12 -4 -19 -1
-8 3 -5 6 6 6 11 1 17 -2 13 -5z m438 -4 c3 -5 1 -10 -4 -10 -6 0 -11 5 -11
10 0 6 2 10 4 10 3 0 8 -4 11 -10z m-818 -16 c-3 -3 -12 -4 -19 -1 -8 3 -5 6
6 6 11 1 17 -2 13 -5z m6783 -166 c0 -5 -4 -8 -10 -8 -5 0 -10 10 -10 23 0 18
2 19 10 7 5 -8 10 -18 10 -22z m-3152 -42 c3 -36 -31 -158 -50 -181 -4 -5 -8
-21 -8 -35 0 -18 -8 -31 -22 -38 -18 -8 -19 -11 -5 -11 9 -1 17 -5 17 -11 0
-5 -4 -9 -9 -7 -4 1 -18 -9 -30 -23 l-22 -25 6 65 c3 36 10 79 15 95 5 17 19
62 30 100 36 117 72 150 78 71z m-373 -46 c3 -5 -1 -10 -10 -10 -9 0 -13 5
-10 10 3 6 8 10 10 10 2 0 7 -4 10 -10z m16 -30 c15 -8 19 -21 19 -60 0 -29
-5 -50 -12 -53 -8 -4 -4 -8 10 -12 14 -5 22 -15 22 -30 0 -13 11 -56 25 -97
14 -40 25 -85 25 -101 0 -15 4 -35 9 -45 29 -57 54 -222 34 -222 -6 0 -14 10
-18 22 -12 40 -25 92 -31 118 -3 14 -11 43 -19 65 -7 22 -16 57 -20 78 -4 20
-11 37 -15 37 -7 0 -11 18 -21 95 -1 6 2 18 6 28 5 12 3 17 -6 15 -8 -2 -13 4
-11 14 1 10 -4 28 -11 40 -26 40 -32 118 -11 118 3 0 14 -5 25 -10z m-4176
-20 c3 -5 1 -10 -4 -10 -6 0 -11 5 -11 10 0 6 2 10 4 10 3 0 8 -4 11 -10z
m8978 -51 c8 -28 -4 -279 -13 -279 -16 0 -29 278 -13 293 12 12 21 7 26 -14z
m-1871 -324 c4 -39 -6 -48 -16 -12 -8 31 -7 47 3 47 5 0 11 -16 13 -35z m8
-55 c0 -5 -4 -10 -10 -10 -5 0 -10 5 -10 10 0 6 5 10 10 10 6 0 10 -4 10 -10z
m136 -60 c8 0 14 -9 13 -22 -1 -16 -3 -18 -6 -7 -2 10 -13 19 -25 22 -13 4
-17 10 -12 18 6 10 9 10 12 1 2 -7 10 -12 18 -12z m334 -30 c0 -5 -4 -10 -10
-10 -5 0 -10 5 -10 10 0 6 5 10 10 10 6 0 10 -4 10 -10z m131 -72 c-18 -101
-32 -138 -25 -68 9 102 14 131 20 141 14 24 16 -6 5 -73z m-135 -5 c7 -10 13
-22 14 -28 0 -5 -5 -3 -11 5 -9 12 -10 10 -6 -8 4 -18 3 -21 -8 -12 -16 13
-26 60 -12 60 5 0 16 -8 23 -17z m-256 -23 c8 -5 11 -10 5 -10 -5 0 -17 5 -25
10 -8 5 -10 10 -5 10 6 0 17 -5 25 -10z"/>
<path d="M5070 8160 c0 -5 5 -10 11 -10 5 0 7 5 4 10 -3 6 -8 10 -11 10 -2 0
-4 -4 -4 -10z"/>
<path d="M5060 8040 c0 -5 5 -10 11 -10 5 0 7 5 4 10 -3 6 -8 10 -11 10 -2 0
-4 -4 -4 -10z"/>
<path d="M8127 8499 c-51 -8 -65 -25 -74 -84 -4 -32 -14 -55 -27 -67 -32 -25
-11 -36 77 -39 l79 -4 39 38 c21 21 39 44 39 51 0 8 -9 34 -20 59 -22 49 -43
58 -113 46z"/>
<path d="M8160 8093 c0 -7 -11 -13 -24 -13 -13 0 -26 -5 -28 -12 -2 -6 -21
-11 -41 -10 -34 1 -36 0 -27 -18 6 -10 18 -24 28 -29 16 -10 16 -10 0 -11 -10
0 -18 4 -18 10 0 5 -7 7 -16 3 -10 -4 -12 -8 -5 -13 8 -4 5 -13 -9 -25 -11
-10 -20 -23 -20 -29 0 -6 4 -5 9 3 6 10 10 10 16 1 4 -6 -1 -20 -11 -31 -9
-10 -15 -21 -13 -22 2 -2 27 -17 55 -34 49 -30 78 -34 175 -25 25 3 39 47 39
123 0 62 -3 73 -25 95 -16 16 -32 23 -42 20 -9 -4 -21 1 -29 11 -8 11 -13 13
-14 6z"/>
<path d="M694 8205 c11 -8 24 -21 28 -27 6 -9 8 -7 6 7 -3 23 -16 35 -38 35
-11 -1 -10 -4 4 -15z"/>
<path d="M1135 7970 c3 -5 11 -10 16 -10 6 0 7 5 4 10 -3 6 -11 10 -16 10 -6
0 -7 -4 -4 -10z"/>
<path d="M1530 6985 c0 -8 2 -15 4 -15 2 0 6 7 10 15 3 8 1 15 -4 15 -6 0 -10
-7 -10 -15z"/>
<path d="M1315 6982 c-3 -3 0 -11 6 -19 6 -7 8 -13 3 -13 -5 0 4 -7 20 -15 16
-9 34 -14 40 -11 7 3 6 5 -2 5 -7 1 -10 6 -7 11 3 6 -1 10 -9 10 -8 0 -18 4
-21 10 -3 6 1 7 9 4 9 -3 16 -2 16 4 0 10 -46 22 -55 14z"/>
<path d="M1511 6901 c-12 -16 -20 -40 -20 -53 1 -20 2 -19 9 7 4 17 8 24 9 17
0 -7 6 -10 11 -7 6 3 10 1 10 -4 0 -6 -4 -11 -10 -11 -5 0 -10 -7 -10 -15 0
-8 -4 -15 -10 -15 -5 0 -10 -12 -9 -27 0 -24 1 -25 8 -8 8 19 8 19 16 -5 13
-39 14 -69 4 -76 -5 -3 -9 -14 -9 -25 0 -12 -4 -17 -11 -13 -8 4 -9 -1 -3 -17
4 -13 7 -56 5 -96 l-2 -71 47 -21 c25 -12 50 -21 55 -21 11 0 0 142 -12 155
-12 12 -11 62 1 70 8 5 7 11 -1 21 -9 11 -9 20 1 39 7 13 10 37 8 54 -2 17 0
33 6 36 7 3 7 7 -1 11 -7 3 -15 21 -19 40 -7 37 -20 45 -27 17 -3 -12 -5 -8
-6 9 -2 39 -17 42 -40 9z m49 -93 c0 -16 -3 -19 -11 -11 -6 6 -8 16 -5 22 11
17 16 13 16 -11z m-3 -125 c-2 -16 -4 -3 -4 27 0 30 2 43 4 28 2 -16 2 -40 0
-55z m6 -125 c3 -43 2 -78 -2 -78 -4 0 -8 37 -10 82 -3 103 5 100 12 -4z"/>
<path d="M1321 6724 c0 -11 3 -14 6 -6 3 7 2 16 -1 19 -3 4 -6 -2 -5 -13z"/>
<path d="M1377 6733 c-9 -8 12 -33 29 -33 7 0 16 -5 19 -11 7 -11 -84 -6 -116
6 -10 4 -19 0 -22 -9 -4 -9 -1 -17 6 -17 7 -1 27 -3 46 -5 19 -1 37 -6 40 -11
8 -13 44 -25 36 -14 -3 6 1 13 9 18 8 4 18 21 22 37 6 25 5 28 -13 22 -14 -4
-23 -1 -27 9 -6 16 -18 19 -29 8z"/>
<path d="M2168 6703 c5 -21 7 -23 10 -9 2 10 0 22 -6 28 -6 6 -7 0 -4 -19z"/>
<path d="M8090 5880 c0 -5 5 -10 10 -10 6 0 10 5 10 10 0 6 -4 10 -10 10 -5 0
-10 -4 -10 -10z"/>
<path d="M8071 5824 c0 -11 3 -14 6 -6 3 7 2 16 -1 19 -3 4 -6 -2 -5 -13z"/>
<path d="M8030 5810 c0 -5 5 -10 10 -10 6 0 10 5 10 10 0 6 -4 10 -10 10 -5 0
-10 -4 -10 -10z"/>
<path d="M8170 5813 c0 -5 4 -15 10 -23 11 -18 25 -7 17 15 -6 15 -27 21 -27
8z"/>
<path d="M8116 5775 c-4 -10 1 -15 14 -15 13 0 18 5 14 15 -4 8 -10 15 -14 15
-4 0 -10 -7 -14 -15z"/>
<path d="M8061 5404 c0 -11 3 -14 6 -6 3 7 2 16 -1 19 -3 4 -6 -2 -5 -13z"/>
<path d="M6640 5451 c-172 -53 -266 -254 -216 -462 23 -96 88 -168 185 -206
59 -23 125 -29 163 -14 13 5 42 14 64 20 53 14 143 88 173 142 42 74 58 146
49 226 -9 84 -30 132 -85 189 -53 56 -102 90 -148 103 -45 12 -147 13 -185 2z"/>
<path d="M6554 4178 c-4 -5 -12 -7 -19 -4 -14 5 -29 -20 -19 -35 6 -11 55 -12
69 -1 6 4 16 14 23 23 11 15 9 17 -18 21 -17 3 -33 1 -36 -4z"/>
<path d="M6491 3934 c0 -11 3 -14 6 -6 3 7 2 16 -1 19 -3 4 -6 -2 -5 -13z"/>
<path d="M6880 3459 c0 -5 5 -7 10 -4 6 3 10 8 10 11 0 2 -4 4 -10 4 -5 0 -10
-5 -10 -11z"/>
<path d="M438 3333 c7 -3 16 -2 19 1 4 3 -2 6 -13 5 -11 0 -14 -3 -6 -6z"/>
<path d="M490 3290 c0 -5 12 -10 26 -10 14 0 23 4 19 10 -3 6 -15 10 -26 10
-10 0 -19 -4 -19 -10z"/>
<path d="M210 2580 c0 -5 5 -10 11 -10 5 0 7 5 4 10 -3 6 -8 10 -11 10 -2 0
-4 -4 -4 -10z"/>
<path d="M9347 2112 c-23 -26 -21 -41 8 -54 14 -6 25 -15 25 -20 0 -4 9 -8 20
-8 19 0 24 -10 21 -37 -1 -6 3 -14 9 -18 5 -3 10 3 10 14 0 11 5 23 10 26 6 3
10 18 10 33 -1 21 -11 33 -44 55 -52 32 -49 32 -69 9z"/>
<path d="M9380 1980 c0 -5 5 -10 10 -10 6 0 10 5 10 10 0 6 -4 10 -10 10 -5 0
-10 -4 -10 -10z"/>
<path d="M6846 1955 c4 -8 17 -15 30 -15 15 0 24 6 24 15 0 10 -10 15 -30 15
-22 0 -28 -4 -24 -15z"/>
<path d="M6952 1958 c5 -15 43 -22 66 -13 15 6 15 8 -3 15 -32 13 -67 12 -63
-2z"/>
<path d="M6855 1909 c-16 -6 -14 -8 13 -8 33 -1 41 4 20 12 -7 2 -22 1 -33 -4z"/>
<path d="M6967 1899 c7 -7 15 -10 18 -7 3 3 -2 9 -12 12 -14 6 -15 5 -6 -5z"/>
<path d="M6891 1824 c0 -11 3 -14 6 -6 3 7 2 16 -1 19 -3 4 -6 -2 -5 -13z"/>
<path d="M6858 1813 c7 -3 16 -2 19 1 4 3 -2 6 -13 5 -11 0 -14 -3 -6 -6z"/>
<path d="M6854 1762 c3 -6 0 -13 -6 -15 -7 -3 2 -6 20 -6 18 -1 32 4 32 11 0
6 -3 8 -6 5 -4 -3 -16 -2 -27 4 -12 7 -17 7 -13 1z"/>
<path d="M6954 1749 c-9 -15 -2 -18 20 -9 17 6 18 7 3 13 -9 3 -19 2 -23 -4z"/>
<path d="M6860 1696 c0 -2 9 -6 20 -9 11 -3 20 -1 20 4 0 5 -9 9 -20 9 -11 0
-20 -2 -20 -4z"/>
<path d="M1889 1453 c-21 -5 -33 -43 -13 -43 8 0 14 6 14 14 0 8 6 16 13 19
17 6 6 14 -14 10z"/>
<path d="M2283 1183 c9 -2 23 -2 30 0 6 3 -1 5 -18 5 -16 0 -22 -2 -12 -5z"/>
<path d="M1181 974 c0 -11 3 -14 6 -6 3 7 2 16 -1 19 -3 4 -6 -2 -5 -13z"/>
<path d="M818 864 c2 -13 8 -21 13 -18 14 8 11 31 -4 37 -10 4 -13 -2 -9 -19z"/>
<path d="M803 835 c0 -22 2 -30 4 -17 2 12 2 30 0 40 -3 9 -5 -1 -4 -23z"/>
<path d="M8237 1096 c-5 -14 10 -36 25 -36 4 0 8 11 8 25 0 27 -24 35 -33 11z"/>
<path d="M8426 715 c4 -8 8 -15 10 -15 2 0 4 7 4 15 0 8 -4 15 -10 15 -5 0 -7
-7 -4 -15z"/>
<path d="M8409 678 c4 -28 6 -29 9 -9 2 13 0 27 -5 32 -6 6 -7 -3 -4 -23z"/>
<path d="M8058 633 c7 -3 16 -2 19 1 4 3 -2 6 -13 5 -11 0 -14 -3 -6 -6z"/>
<path d="M8000 615 c0 -8 9 -15 20 -15 11 0 20 7 20 15 0 8 -9 15 -20 15 -11
0 -20 -7 -20 -15z"/>
<path d="M8350 620 c0 -6 7 -13 15 -16 8 -4 15 -12 15 -19 0 -7 7 -15 15 -19
20 -7 19 14 -1 42 -16 23 -44 30 -44 12z"/>
<path d="M8322 603 c2 -10 11 -19 21 -21 16 -3 17 -1 5 17 -16 25 -31 27 -26
4z"/>
<path d="M7860 590 c0 -5 5 -10 10 -10 6 0 10 5 10 10 0 6 -4 10 -10 10 -5 0
-10 -4 -10 -10z"/>
<path d="M7886 565 c-6 -18 2 -45 15 -45 5 0 9 14 9 30 0 32 -14 40 -24 15z"/>
<path d="M7860 520 c0 -5 5 -10 11 -10 5 0 7 5 4 10 -3 6 -8 10 -11 10 -2 0
-4 -4 -4 -10z"/>
<path d="M8001 494 c0 -11 3 -14 6 -6 3 7 2 16 -1 19 -3 4 -6 -2 -5 -13z"/>
<path d="M8252 455 c-7 -14 -12 -41 -12 -60 0 -28 3 -32 20 -28 11 3 20 11 20
19 0 7 -6 11 -13 8 -18 -6 -18 25 -1 51 16 22 18 35 6 35 -5 0 -14 -11 -20
-25z"/>
<path d="M8295 440 c-3 -5 -1 -10 4 -10 6 0 11 5 11 10 0 6 -2 10 -4 10 -3 0
-8 -4 -11 -10z"/>
<path d="M7970 425 c0 -9 8 -25 19 -36 15 -16 19 -17 24 -5 3 8 -1 17 -9 20
-8 3 -14 12 -14 21 0 8 -4 15 -10 15 -5 0 -10 -7 -10 -15z"/>
<path d="M8035 400 c-3 -6 1 -7 9 -4 18 7 21 14 7 14 -6 0 -13 -4 -16 -10z"/>
<path d="M8151 294 c0 -11 3 -14 6 -6 3 7 2 16 -1 19 -3 4 -6 -2 -5 -13z"/>
<path d="M8154 204 c3 -9 6 -18 6 -20 0 -3 5 -2 10 1 16 10 12 35 -6 35 -11 0
-14 -5 -10 -16z"/>
<path d="M8105 201 c-3 -5 -1 -12 5 -16 5 -3 10 1 10 9 0 18 -6 21 -15 7z"/>
<path d="M4915 671 c-3 -5 -1 -12 5 -16 5 -3 10 1 10 9 0 18 -6 21 -15 7z"/>
<path d="M10231 9044 c0 -11 3 -14 6 -6 3 7 2 16 -1 19 -3 4 -6 -2 -5 -13z"/>
</g>
</svg>
